<?xml version="1.0" encoding="utf-8" standalone="no"?>
<!DOCTYPE svg PUBLIC "-//W3C//DTD SVG 1.1//EN"
  "http://www.w3.org/Graphics/SVG/1.1/DTD/svg11.dtd">
<svg xmlns:xlink="http://www.w3.org/1999/xlink" width="408.10125pt" height="310.86825pt" viewBox="0 0 408.10125 310.86825" xmlns="http://www.w3.org/2000/svg" version="1.1">
 <metadata>
  <rdf:RDF xmlns:dc="http://purl.org/dc/elements/1.1/" xmlns:cc="http://creativecommons.org/ns#" xmlns:rdf="http://www.w3.org/1999/02/22-rdf-syntax-ns#">
   <cc:Work>
    <dc:type rdf:resource="http://purl.org/dc/dcmitype/StillImage"/>
    <dc:date>2022-03-14T15:19:39.672649</dc:date>
    <dc:format>image/svg+xml</dc:format>
    <dc:creator>
     <cc:Agent>
      <dc:title>Matplotlib v3.5.1, https://matplotlib.org/</dc:title>
     </cc:Agent>
    </dc:creator>
   </cc:Work>
  </rdf:RDF>
 </metadata>
 <defs>
  <style type="text/css">*{stroke-linejoin: round; stroke-linecap: butt}</style>
 </defs>
 <g id="figure_1">
  <g id="patch_1">
   <path d="M 0 310.86825 
L 408.10125 310.86825 
L 408.10125 0 
L 0 0 
z
" style="fill: #ffffff"/>
  </g>
  <g id="axes_1">
   <g id="patch_2">
    <path d="M 43.78125 273.312 
L 400.90125 273.312 
L 400.90125 7.2 
L 43.78125 7.2 
z
" style="fill: #ffffff"/>
   </g>
   <g id="patch_3">
    <path d="M 60.765595 273.312 
L 62.37974 273.312 
L 62.37974 271.108174 
L 60.765595 271.108174 
z
" clip-path="url(#p69f770a608)" style="fill: #1f77b4"/>
   </g>
   <g id="patch_4">
    <path d="M 62.37974 273.312 
L 63.993884 273.312 
L 63.993884 268.169739 
L 62.37974 268.169739 
z
" clip-path="url(#p69f770a608)" style="fill: #1f77b4"/>
   </g>
   <g id="patch_5">
    <path d="M 63.993884 273.312 
L 65.608028 273.312 
L 65.608028 261.558261 
L 63.993884 261.558261 
z
" clip-path="url(#p69f770a608)" style="fill: #1f77b4"/>
   </g>
   <g id="patch_6">
    <path d="M 65.608028 273.312 
L 67.222173 273.312 
L 67.222173 254.946783 
L 65.608028 254.946783 
z
" clip-path="url(#p69f770a608)" style="fill: #1f77b4"/>
   </g>
   <g id="patch_7">
    <path d="M 67.222173 273.312 
L 68.836317 273.312 
L 68.836317 254.212174 
L 67.222173 254.212174 
z
" clip-path="url(#p69f770a608)" style="fill: #1f77b4"/>
   </g>
   <g id="patch_8">
    <path d="M 68.836317 273.312 
L 70.450462 273.312 
L 70.450462 252.008348 
L 68.836317 252.008348 
z
" clip-path="url(#p69f770a608)" style="fill: #1f77b4"/>
   </g>
   <g id="patch_9">
    <path d="M 70.450462 273.312 
L 72.064606 273.312 
L 72.064606 248.335304 
L 70.450462 248.335304 
z
" clip-path="url(#p69f770a608)" style="fill: #1f77b4"/>
   </g>
   <g id="patch_10">
    <path d="M 72.064606 273.312 
L 73.678751 273.312 
L 73.678751 253.477565 
L 72.064606 253.477565 
z
" clip-path="url(#p69f770a608)" style="fill: #1f77b4"/>
   </g>
   <g id="patch_11">
    <path d="M 73.678751 273.312 
L 75.292895 273.312 
L 75.292895 232.173913 
L 73.678751 232.173913 
z
" clip-path="url(#p69f770a608)" style="fill: #1f77b4"/>
   </g>
   <g id="patch_12">
    <path d="M 75.292895 273.312 
L 76.90704 273.312 
L 76.90704 240.989217 
L 75.292895 240.989217 
z
" clip-path="url(#p69f770a608)" style="fill: #1f77b4"/>
   </g>
   <g id="patch_13">
    <path d="M 76.90704 273.312 
L 78.521184 273.312 
L 78.521184 232.908522 
L 76.90704 232.908522 
z
" clip-path="url(#p69f770a608)" style="fill: #1f77b4"/>
   </g>
   <g id="patch_14">
    <path d="M 78.521184 273.312 
L 80.135329 273.312 
L 80.135329 228.50087 
L 78.521184 228.50087 
z
" clip-path="url(#p69f770a608)" style="fill: #1f77b4"/>
   </g>
   <g id="patch_15">
    <path d="M 80.135329 273.312 
L 81.749473 273.312 
L 81.749473 217.481739 
L 80.135329 217.481739 
z
" clip-path="url(#p69f770a608)" style="fill: #1f77b4"/>
   </g>
   <g id="patch_16">
    <path d="M 81.749473 273.312 
L 83.363618 273.312 
L 83.363618 216.74713 
L 81.749473 216.74713 
z
" clip-path="url(#p69f770a608)" style="fill: #1f77b4"/>
   </g>
   <g id="patch_17">
    <path d="M 83.363618 273.312 
L 84.977762 273.312 
L 84.977762 213.074087 
L 83.363618 213.074087 
z
" clip-path="url(#p69f770a608)" style="fill: #1f77b4"/>
   </g>
   <g id="patch_18">
    <path d="M 84.977762 273.312 
L 86.591907 273.312 
L 86.591907 210.135652 
L 84.977762 210.135652 
z
" clip-path="url(#p69f770a608)" style="fill: #1f77b4"/>
   </g>
   <g id="patch_19">
    <path d="M 86.591907 273.312 
L 88.206051 273.312 
L 88.206051 211.60487 
L 86.591907 211.60487 
z
" clip-path="url(#p69f770a608)" style="fill: #1f77b4"/>
   </g>
   <g id="patch_20">
    <path d="M 88.206051 273.312 
L 89.820196 273.312 
L 89.820196 211.60487 
L 88.206051 211.60487 
z
" clip-path="url(#p69f770a608)" style="fill: #1f77b4"/>
   </g>
   <g id="patch_21">
    <path d="M 89.820196 273.312 
L 91.43434 273.312 
L 91.43434 202.789565 
L 89.820196 202.789565 
z
" clip-path="url(#p69f770a608)" style="fill: #1f77b4"/>
   </g>
   <g id="patch_22">
    <path d="M 91.43434 273.312 
L 93.048485 273.312 
L 93.048485 215.277913 
L 91.43434 215.277913 
z
" clip-path="url(#p69f770a608)" style="fill: #1f77b4"/>
   </g>
   <g id="patch_23">
    <path d="M 93.048485 273.312 
L 94.662629 273.312 
L 94.662629 199.85113 
L 93.048485 199.85113 
z
" clip-path="url(#p69f770a608)" style="fill: #1f77b4"/>
   </g>
   <g id="patch_24">
    <path d="M 94.662629 273.312 
L 96.276774 273.312 
L 96.276774 204.258783 
L 94.662629 204.258783 
z
" clip-path="url(#p69f770a608)" style="fill: #1f77b4"/>
   </g>
   <g id="patch_25">
    <path d="M 96.276774 273.312 
L 97.890918 273.312 
L 97.890918 186.628174 
L 96.276774 186.628174 
z
" clip-path="url(#p69f770a608)" style="fill: #1f77b4"/>
   </g>
   <g id="patch_26">
    <path d="M 97.890918 273.312 
L 99.505063 273.312 
L 99.505063 192.505043 
L 97.890918 192.505043 
z
" clip-path="url(#p69f770a608)" style="fill: #1f77b4"/>
   </g>
   <g id="patch_27">
    <path d="M 99.505063 273.312 
L 101.119207 273.312 
L 101.119207 174.139826 
L 99.505063 174.139826 
z
" clip-path="url(#p69f770a608)" style="fill: #1f77b4"/>
   </g>
   <g id="patch_28">
    <path d="M 101.119207 273.312 
L 102.733352 273.312 
L 102.733352 185.158957 
L 101.119207 185.158957 
z
" clip-path="url(#p69f770a608)" style="fill: #1f77b4"/>
   </g>
   <g id="patch_29">
    <path d="M 102.733352 273.312 
L 104.347496 273.312 
L 104.347496 178.547478 
L 102.733352 178.547478 
z
" clip-path="url(#p69f770a608)" style="fill: #1f77b4"/>
   </g>
   <g id="patch_30">
    <path d="M 104.347496 273.312 
L 105.961641 273.312 
L 105.961641 167.528348 
L 104.347496 167.528348 
z
" clip-path="url(#p69f770a608)" style="fill: #1f77b4"/>
   </g>
   <g id="patch_31">
    <path d="M 105.961641 273.312 
L 107.575785 273.312 
L 107.575785 177.81287 
L 105.961641 177.81287 
z
" clip-path="url(#p69f770a608)" style="fill: #1f77b4"/>
   </g>
   <g id="patch_32">
    <path d="M 107.575785 273.312 
L 109.18993 273.312 
L 109.18993 164.589913 
L 107.575785 164.589913 
z
" clip-path="url(#p69f770a608)" style="fill: #1f77b4"/>
   </g>
   <g id="patch_33">
    <path d="M 109.18993 273.312 
L 110.804074 273.312 
L 110.804074 163.120696 
L 109.18993 163.120696 
z
" clip-path="url(#p69f770a608)" style="fill: #1f77b4"/>
   </g>
   <g id="patch_34">
    <path d="M 110.804074 273.312 
L 112.418219 273.312 
L 112.418219 155.04 
L 110.804074 155.04 
z
" clip-path="url(#p69f770a608)" style="fill: #1f77b4"/>
   </g>
   <g id="patch_35">
    <path d="M 112.418219 273.312 
L 114.032363 273.312 
L 114.032363 153.570783 
L 112.418219 153.570783 
z
" clip-path="url(#p69f770a608)" style="fill: #1f77b4"/>
   </g>
   <g id="patch_36">
    <path d="M 114.032363 273.312 
L 115.646508 273.312 
L 115.646508 157.243826 
L 114.032363 157.243826 
z
" clip-path="url(#p69f770a608)" style="fill: #1f77b4"/>
   </g>
   <g id="patch_37">
    <path d="M 115.646508 273.312 
L 117.260652 273.312 
L 117.260652 136.674783 
L 115.646508 136.674783 
z
" clip-path="url(#p69f770a608)" style="fill: #1f77b4"/>
   </g>
   <g id="patch_38">
    <path d="M 117.260652 273.312 
L 118.874797 273.312 
L 118.874797 131.532522 
L 117.260652 131.532522 
z
" clip-path="url(#p69f770a608)" style="fill: #1f77b4"/>
   </g>
   <g id="patch_39">
    <path d="M 118.874797 273.312 
L 120.488941 273.312 
L 120.488941 155.04 
L 118.874797 155.04 
z
" clip-path="url(#p69f770a608)" style="fill: #1f77b4"/>
   </g>
   <g id="patch_40">
    <path d="M 120.488941 273.312 
L 122.103086 273.312 
L 122.103086 141.817043 
L 120.488941 141.817043 
z
" clip-path="url(#p69f770a608)" style="fill: #1f77b4"/>
   </g>
   <g id="patch_41">
    <path d="M 122.103086 273.312 
L 123.71723 273.312 
L 123.71723 136.674783 
L 122.103086 136.674783 
z
" clip-path="url(#p69f770a608)" style="fill: #1f77b4"/>
   </g>
   <g id="patch_42">
    <path d="M 123.71723 273.312 
L 125.331375 273.312 
L 125.331375 132.26713 
L 123.71723 132.26713 
z
" clip-path="url(#p69f770a608)" style="fill: #1f77b4"/>
   </g>
   <g id="patch_43">
    <path d="M 125.331375 273.312 
L 126.945519 273.312 
L 126.945519 134.470957 
L 125.331375 134.470957 
z
" clip-path="url(#p69f770a608)" style="fill: #1f77b4"/>
   </g>
   <g id="patch_44">
    <path d="M 126.945519 273.312 
L 128.559664 273.312 
L 128.559664 150.632348 
L 126.945519 150.632348 
z
" clip-path="url(#p69f770a608)" style="fill: #1f77b4"/>
   </g>
   <g id="patch_45">
    <path d="M 128.559664 273.312 
L 130.173808 273.312 
L 130.173808 135.940174 
L 128.559664 135.940174 
z
" clip-path="url(#p69f770a608)" style="fill: #1f77b4"/>
   </g>
   <g id="patch_46">
    <path d="M 130.173808 273.312 
L 131.787953 273.312 
L 131.787953 105.821217 
L 130.173808 105.821217 
z
" clip-path="url(#p69f770a608)" style="fill: #1f77b4"/>
   </g>
   <g id="patch_47">
    <path d="M 131.787953 273.312 
L 133.402097 273.312 
L 133.402097 119.778783 
L 131.787953 119.778783 
z
" clip-path="url(#p69f770a608)" style="fill: #1f77b4"/>
   </g>
   <g id="patch_48">
    <path d="M 133.402097 273.312 
L 135.016242 273.312 
L 135.016242 117.574957 
L 133.402097 117.574957 
z
" clip-path="url(#p69f770a608)" style="fill: #1f77b4"/>
   </g>
   <g id="patch_49">
    <path d="M 135.016242 273.312 
L 136.630386 273.312 
L 136.630386 128.594087 
L 135.016242 128.594087 
z
" clip-path="url(#p69f770a608)" style="fill: #1f77b4"/>
   </g>
   <g id="patch_50">
    <path d="M 136.630386 273.312 
L 138.244531 273.312 
L 138.244531 124.186435 
L 136.630386 124.186435 
z
" clip-path="url(#p69f770a608)" style="fill: #1f77b4"/>
   </g>
   <g id="patch_51">
    <path d="M 138.244531 273.312 
L 139.858675 273.312 
L 139.858675 141.817043 
L 138.244531 141.817043 
z
" clip-path="url(#p69f770a608)" style="fill: #1f77b4"/>
   </g>
   <g id="patch_52">
    <path d="M 139.858675 273.312 
L 141.472819 273.312 
L 141.472819 127.859478 
L 139.858675 127.859478 
z
" clip-path="url(#p69f770a608)" style="fill: #1f77b4"/>
   </g>
   <g id="patch_53">
    <path d="M 141.472819 273.312 
L 143.086964 273.312 
L 143.086964 97.740522 
L 141.472819 97.740522 
z
" clip-path="url(#p69f770a608)" style="fill: #1f77b4"/>
   </g>
   <g id="patch_54">
    <path d="M 143.086964 273.312 
L 144.701108 273.312 
L 144.701108 108.759652 
L 143.086964 108.759652 
z
" clip-path="url(#p69f770a608)" style="fill: #1f77b4"/>
   </g>
   <g id="patch_55">
    <path d="M 144.701108 273.312 
L 146.315253 273.312 
L 146.315253 95.536696 
L 144.701108 95.536696 
z
" clip-path="url(#p69f770a608)" style="fill: #1f77b4"/>
   </g>
   <g id="patch_56">
    <path d="M 146.315253 273.312 
L 147.929397 273.312 
L 147.929397 105.086609 
L 146.315253 105.086609 
z
" clip-path="url(#p69f770a608)" style="fill: #1f77b4"/>
   </g>
   <g id="patch_57">
    <path d="M 147.929397 273.312 
L 149.543542 273.312 
L 149.543542 107.290435 
L 147.929397 107.290435 
z
" clip-path="url(#p69f770a608)" style="fill: #1f77b4"/>
   </g>
   <g id="patch_58">
    <path d="M 149.543542 273.312 
L 151.157686 273.312 
L 151.157686 105.821217 
L 149.543542 105.821217 
z
" clip-path="url(#p69f770a608)" style="fill: #1f77b4"/>
   </g>
   <g id="patch_59">
    <path d="M 151.157686 273.312 
L 152.771831 273.312 
L 152.771831 84.517565 
L 151.157686 84.517565 
z
" clip-path="url(#p69f770a608)" style="fill: #1f77b4"/>
   </g>
   <g id="patch_60">
    <path d="M 152.771831 273.312 
L 154.385975 273.312 
L 154.385975 107.290435 
L 152.771831 107.290435 
z
" clip-path="url(#p69f770a608)" style="fill: #1f77b4"/>
   </g>
   <g id="patch_61">
    <path d="M 154.385975 273.312 
L 156.00012 273.312 
L 156.00012 93.33287 
L 154.385975 93.33287 
z
" clip-path="url(#p69f770a608)" style="fill: #1f77b4"/>
   </g>
   <g id="patch_62">
    <path d="M 156.00012 273.312 
L 157.614264 273.312 
L 157.614264 86.721391 
L 156.00012 86.721391 
z
" clip-path="url(#p69f770a608)" style="fill: #1f77b4"/>
   </g>
   <g id="patch_63">
    <path d="M 157.614264 273.312 
L 159.228409 273.312 
L 159.228409 86.721391 
L 157.614264 86.721391 
z
" clip-path="url(#p69f770a608)" style="fill: #1f77b4"/>
   </g>
   <g id="patch_64">
    <path d="M 159.228409 273.312 
L 160.842553 273.312 
L 160.842553 73.498435 
L 159.228409 73.498435 
z
" clip-path="url(#p69f770a608)" style="fill: #1f77b4"/>
   </g>
   <g id="patch_65">
    <path d="M 160.842553 273.312 
L 162.456698 273.312 
L 162.456698 87.456 
L 160.842553 87.456 
z
" clip-path="url(#p69f770a608)" style="fill: #1f77b4"/>
   </g>
   <g id="patch_66">
    <path d="M 162.456698 273.312 
L 164.070842 273.312 
L 164.070842 81.57913 
L 162.456698 81.57913 
z
" clip-path="url(#p69f770a608)" style="fill: #1f77b4"/>
   </g>
   <g id="patch_67">
    <path d="M 164.070842 273.312 
L 165.684987 273.312 
L 165.684987 85.252174 
L 164.070842 85.252174 
z
" clip-path="url(#p69f770a608)" style="fill: #1f77b4"/>
   </g>
   <g id="patch_68">
    <path d="M 165.684987 273.312 
L 167.299131 273.312 
L 167.299131 74.233043 
L 165.684987 74.233043 
z
" clip-path="url(#p69f770a608)" style="fill: #1f77b4"/>
   </g>
   <g id="patch_69">
    <path d="M 167.299131 273.312 
L 168.913276 273.312 
L 168.913276 66.886957 
L 167.299131 66.886957 
z
" clip-path="url(#p69f770a608)" style="fill: #1f77b4"/>
   </g>
   <g id="patch_70">
    <path d="M 168.913276 273.312 
L 170.52742 273.312 
L 170.52742 85.252174 
L 168.913276 85.252174 
z
" clip-path="url(#p69f770a608)" style="fill: #1f77b4"/>
   </g>
   <g id="patch_71">
    <path d="M 170.52742 273.312 
L 172.141565 273.312 
L 172.141565 61.744696 
L 170.52742 61.744696 
z
" clip-path="url(#p69f770a608)" style="fill: #1f77b4"/>
   </g>
   <g id="patch_72">
    <path d="M 172.141565 273.312 
L 173.755709 273.312 
L 173.755709 66.886957 
L 172.141565 66.886957 
z
" clip-path="url(#p69f770a608)" style="fill: #1f77b4"/>
   </g>
   <g id="patch_73">
    <path d="M 173.755709 273.312 
L 175.369854 273.312 
L 175.369854 55.133217 
L 173.755709 55.133217 
z
" clip-path="url(#p69f770a608)" style="fill: #1f77b4"/>
   </g>
   <g id="patch_74">
    <path d="M 175.369854 273.312 
L 176.983998 273.312 
L 176.983998 84.517565 
L 175.369854 84.517565 
z
" clip-path="url(#p69f770a608)" style="fill: #1f77b4"/>
   </g>
   <g id="patch_75">
    <path d="M 176.983998 273.312 
L 178.598143 273.312 
L 178.598143 82.313739 
L 176.983998 82.313739 
z
" clip-path="url(#p69f770a608)" style="fill: #1f77b4"/>
   </g>
   <g id="patch_76">
    <path d="M 178.598143 273.312 
L 180.212287 273.312 
L 180.212287 66.152348 
L 178.598143 66.152348 
z
" clip-path="url(#p69f770a608)" style="fill: #1f77b4"/>
   </g>
   <g id="patch_77">
    <path d="M 180.212287 273.312 
L 181.826432 273.312 
L 181.826432 66.886957 
L 180.212287 66.886957 
z
" clip-path="url(#p69f770a608)" style="fill: #1f77b4"/>
   </g>
   <g id="patch_78">
    <path d="M 181.826432 273.312 
L 183.440576 273.312 
L 183.440576 58.071652 
L 181.826432 58.071652 
z
" clip-path="url(#p69f770a608)" style="fill: #1f77b4"/>
   </g>
   <g id="patch_79">
    <path d="M 183.440576 273.312 
L 185.054721 273.312 
L 185.054721 63.948522 
L 183.440576 63.948522 
z
" clip-path="url(#p69f770a608)" style="fill: #1f77b4"/>
   </g>
   <g id="patch_80">
    <path d="M 185.054721 273.312 
L 186.668865 273.312 
L 186.668865 79.375304 
L 185.054721 79.375304 
z
" clip-path="url(#p69f770a608)" style="fill: #1f77b4"/>
   </g>
   <g id="patch_81">
    <path d="M 186.668865 273.312 
L 188.28301 273.312 
L 188.28301 39.706435 
L 186.668865 39.706435 
z
" clip-path="url(#p69f770a608)" style="fill: #1f77b4"/>
   </g>
   <g id="patch_82">
    <path d="M 188.28301 273.312 
L 189.897154 273.312 
L 189.897154 77.906087 
L 188.28301 77.906087 
z
" clip-path="url(#p69f770a608)" style="fill: #1f77b4"/>
   </g>
   <g id="patch_83">
    <path d="M 189.897154 273.312 
L 191.511299 273.312 
L 191.511299 41.910261 
L 189.897154 41.910261 
z
" clip-path="url(#p69f770a608)" style="fill: #1f77b4"/>
   </g>
   <g id="patch_84">
    <path d="M 191.511299 273.312 
L 193.125443 273.312 
L 193.125443 49.990957 
L 191.511299 49.990957 
z
" clip-path="url(#p69f770a608)" style="fill: #1f77b4"/>
   </g>
   <g id="patch_85">
    <path d="M 193.125443 273.312 
L 194.739588 273.312 
L 194.739588 61.744696 
L 193.125443 61.744696 
z
" clip-path="url(#p69f770a608)" style="fill: #1f77b4"/>
   </g>
   <g id="patch_86">
    <path d="M 194.739588 273.312 
L 196.353732 273.312 
L 196.353732 62.479304 
L 194.739588 62.479304 
z
" clip-path="url(#p69f770a608)" style="fill: #1f77b4"/>
   </g>
   <g id="patch_87">
    <path d="M 196.353732 273.312 
L 197.967877 273.312 
L 197.967877 45.583304 
L 196.353732 45.583304 
z
" clip-path="url(#p69f770a608)" style="fill: #1f77b4"/>
   </g>
   <g id="patch_88">
    <path d="M 197.967877 273.312 
L 199.582021 273.312 
L 199.582021 70.56 
L 197.967877 70.56 
z
" clip-path="url(#p69f770a608)" style="fill: #1f77b4"/>
   </g>
   <g id="patch_89">
    <path d="M 199.582021 273.312 
L 201.196166 273.312 
L 201.196166 29.421913 
L 199.582021 29.421913 
z
" clip-path="url(#p69f770a608)" style="fill: #1f77b4"/>
   </g>
   <g id="patch_90">
    <path d="M 201.196166 273.312 
L 202.81031 273.312 
L 202.81031 45.583304 
L 201.196166 45.583304 
z
" clip-path="url(#p69f770a608)" style="fill: #1f77b4"/>
   </g>
   <g id="patch_91">
    <path d="M 202.81031 273.312 
L 204.424455 273.312 
L 204.424455 56.602435 
L 202.81031 56.602435 
z
" clip-path="url(#p69f770a608)" style="fill: #1f77b4"/>
   </g>
   <g id="patch_92">
    <path d="M 204.424455 273.312 
L 206.038599 273.312 
L 206.038599 19.872 
L 204.424455 19.872 
z
" clip-path="url(#p69f770a608)" style="fill: #1f77b4"/>
   </g>
   <g id="patch_93">
    <path d="M 206.038599 273.312 
L 207.652744 273.312 
L 207.652744 51.460174 
L 206.038599 51.460174 
z
" clip-path="url(#p69f770a608)" style="fill: #1f77b4"/>
   </g>
   <g id="patch_94">
    <path d="M 207.652744 273.312 
L 209.266888 273.312 
L 209.266888 40.441043 
L 207.652744 40.441043 
z
" clip-path="url(#p69f770a608)" style="fill: #1f77b4"/>
   </g>
   <g id="patch_95">
    <path d="M 209.266888 273.312 
L 210.881033 273.312 
L 210.881033 57.337043 
L 209.266888 57.337043 
z
" clip-path="url(#p69f770a608)" style="fill: #1f77b4"/>
   </g>
   <g id="patch_96">
    <path d="M 210.881033 273.312 
L 212.495177 273.312 
L 212.495177 38.971826 
L 210.881033 38.971826 
z
" clip-path="url(#p69f770a608)" style="fill: #1f77b4"/>
   </g>
   <g id="patch_97">
    <path d="M 212.495177 273.312 
L 214.109322 273.312 
L 214.109322 59.54087 
L 212.495177 59.54087 
z
" clip-path="url(#p69f770a608)" style="fill: #1f77b4"/>
   </g>
   <g id="patch_98">
    <path d="M 214.109322 273.312 
L 215.723466 273.312 
L 215.723466 57.337043 
L 214.109322 57.337043 
z
" clip-path="url(#p69f770a608)" style="fill: #1f77b4"/>
   </g>
   <g id="patch_99">
    <path d="M 215.723466 273.312 
L 217.33761 273.312 
L 217.33761 67.621565 
L 215.723466 67.621565 
z
" clip-path="url(#p69f770a608)" style="fill: #1f77b4"/>
   </g>
   <g id="patch_100">
    <path d="M 217.33761 273.312 
L 218.951755 273.312 
L 218.951755 62.479304 
L 217.33761 62.479304 
z
" clip-path="url(#p69f770a608)" style="fill: #1f77b4"/>
   </g>
   <g id="patch_101">
    <path d="M 218.951755 273.312 
L 220.565899 273.312 
L 220.565899 52.929391 
L 218.951755 52.929391 
z
" clip-path="url(#p69f770a608)" style="fill: #1f77b4"/>
   </g>
   <g id="patch_102">
    <path d="M 220.565899 273.312 
L 222.180044 273.312 
L 222.180044 49.990957 
L 220.565899 49.990957 
z
" clip-path="url(#p69f770a608)" style="fill: #1f77b4"/>
   </g>
   <g id="patch_103">
    <path d="M 222.180044 273.312 
L 223.794188 273.312 
L 223.794188 55.133217 
L 222.180044 55.133217 
z
" clip-path="url(#p69f770a608)" style="fill: #1f77b4"/>
   </g>
   <g id="patch_104">
    <path d="M 223.794188 273.312 
L 225.408333 273.312 
L 225.408333 41.175652 
L 223.794188 41.175652 
z
" clip-path="url(#p69f770a608)" style="fill: #1f77b4"/>
   </g>
   <g id="patch_105">
    <path d="M 225.408333 273.312 
L 227.022477 273.312 
L 227.022477 34.564174 
L 225.408333 34.564174 
z
" clip-path="url(#p69f770a608)" style="fill: #1f77b4"/>
   </g>
   <g id="patch_106">
    <path d="M 227.022477 273.312 
L 228.636622 273.312 
L 228.636622 36.033391 
L 227.022477 36.033391 
z
" clip-path="url(#p69f770a608)" style="fill: #1f77b4"/>
   </g>
   <g id="patch_107">
    <path d="M 228.636622 273.312 
L 230.250766 273.312 
L 230.250766 69.090783 
L 228.636622 69.090783 
z
" clip-path="url(#p69f770a608)" style="fill: #1f77b4"/>
   </g>
   <g id="patch_108">
    <path d="M 230.250766 273.312 
L 231.864911 273.312 
L 231.864911 59.54087 
L 230.250766 59.54087 
z
" clip-path="url(#p69f770a608)" style="fill: #1f77b4"/>
   </g>
   <g id="patch_109">
    <path d="M 231.864911 273.312 
L 233.479055 273.312 
L 233.479055 49.990957 
L 231.864911 49.990957 
z
" clip-path="url(#p69f770a608)" style="fill: #1f77b4"/>
   </g>
   <g id="patch_110">
    <path d="M 233.479055 273.312 
L 235.0932 273.312 
L 235.0932 37.502609 
L 233.479055 37.502609 
z
" clip-path="url(#p69f770a608)" style="fill: #1f77b4"/>
   </g>
   <g id="patch_111">
    <path d="M 235.0932 273.312 
L 236.707344 273.312 
L 236.707344 22.075826 
L 235.0932 22.075826 
z
" clip-path="url(#p69f770a608)" style="fill: #1f77b4"/>
   </g>
   <g id="patch_112">
    <path d="M 236.707344 273.312 
L 238.321489 273.312 
L 238.321489 44.848696 
L 236.707344 44.848696 
z
" clip-path="url(#p69f770a608)" style="fill: #1f77b4"/>
   </g>
   <g id="patch_113">
    <path d="M 238.321489 273.312 
L 239.935633 273.312 
L 239.935633 63.213913 
L 238.321489 63.213913 
z
" clip-path="url(#p69f770a608)" style="fill: #1f77b4"/>
   </g>
   <g id="patch_114">
    <path d="M 239.935633 273.312 
L 241.549778 273.312 
L 241.549778 34.564174 
L 239.935633 34.564174 
z
" clip-path="url(#p69f770a608)" style="fill: #1f77b4"/>
   </g>
   <g id="patch_115">
    <path d="M 241.549778 273.312 
L 243.163922 273.312 
L 243.163922 41.175652 
L 241.549778 41.175652 
z
" clip-path="url(#p69f770a608)" style="fill: #1f77b4"/>
   </g>
   <g id="patch_116">
    <path d="M 243.163922 273.312 
L 244.778067 273.312 
L 244.778067 58.806261 
L 243.163922 58.806261 
z
" clip-path="url(#p69f770a608)" style="fill: #1f77b4"/>
   </g>
   <g id="patch_117">
    <path d="M 244.778067 273.312 
L 246.392211 273.312 
L 246.392211 47.78713 
L 244.778067 47.78713 
z
" clip-path="url(#p69f770a608)" style="fill: #1f77b4"/>
   </g>
   <g id="patch_118">
    <path d="M 246.392211 273.312 
L 248.006356 273.312 
L 248.006356 54.398609 
L 246.392211 54.398609 
z
" clip-path="url(#p69f770a608)" style="fill: #1f77b4"/>
   </g>
   <g id="patch_119">
    <path d="M 248.006356 273.312 
L 249.6205 273.312 
L 249.6205 46.317913 
L 248.006356 46.317913 
z
" clip-path="url(#p69f770a608)" style="fill: #1f77b4"/>
   </g>
   <g id="patch_120">
    <path d="M 249.6205 273.312 
L 251.234645 273.312 
L 251.234645 29.421913 
L 249.6205 29.421913 
z
" clip-path="url(#p69f770a608)" style="fill: #1f77b4"/>
   </g>
   <g id="patch_121">
    <path d="M 251.234645 273.312 
L 252.848789 273.312 
L 252.848789 58.071652 
L 251.234645 58.071652 
z
" clip-path="url(#p69f770a608)" style="fill: #1f77b4"/>
   </g>
   <g id="patch_122">
    <path d="M 252.848789 273.312 
L 254.462934 273.312 
L 254.462934 49.256348 
L 252.848789 49.256348 
z
" clip-path="url(#p69f770a608)" style="fill: #1f77b4"/>
   </g>
   <g id="patch_123">
    <path d="M 254.462934 273.312 
L 256.077078 273.312 
L 256.077078 54.398609 
L 254.462934 54.398609 
z
" clip-path="url(#p69f770a608)" style="fill: #1f77b4"/>
   </g>
   <g id="patch_124">
    <path d="M 256.077078 273.312 
L 257.691223 273.312 
L 257.691223 60.275478 
L 256.077078 60.275478 
z
" clip-path="url(#p69f770a608)" style="fill: #1f77b4"/>
   </g>
   <g id="patch_125">
    <path d="M 257.691223 273.312 
L 259.305367 273.312 
L 259.305367 66.886957 
L 257.691223 66.886957 
z
" clip-path="url(#p69f770a608)" style="fill: #1f77b4"/>
   </g>
   <g id="patch_126">
    <path d="M 259.305367 273.312 
L 260.919512 273.312 
L 260.919512 58.071652 
L 259.305367 58.071652 
z
" clip-path="url(#p69f770a608)" style="fill: #1f77b4"/>
   </g>
   <g id="patch_127">
    <path d="M 260.919512 273.312 
L 262.533656 273.312 
L 262.533656 42.64487 
L 260.919512 42.64487 
z
" clip-path="url(#p69f770a608)" style="fill: #1f77b4"/>
   </g>
   <g id="patch_128">
    <path d="M 262.533656 273.312 
L 264.147801 273.312 
L 264.147801 58.071652 
L 262.533656 58.071652 
z
" clip-path="url(#p69f770a608)" style="fill: #1f77b4"/>
   </g>
   <g id="patch_129">
    <path d="M 264.147801 273.312 
L 265.761945 273.312 
L 265.761945 75.702261 
L 264.147801 75.702261 
z
" clip-path="url(#p69f770a608)" style="fill: #1f77b4"/>
   </g>
   <g id="patch_130">
    <path d="M 265.761945 273.312 
L 267.37609 273.312 
L 267.37609 67.621565 
L 265.761945 67.621565 
z
" clip-path="url(#p69f770a608)" style="fill: #1f77b4"/>
   </g>
   <g id="patch_131">
    <path d="M 267.37609 273.312 
L 268.990234 273.312 
L 268.990234 58.071652 
L 267.37609 58.071652 
z
" clip-path="url(#p69f770a608)" style="fill: #1f77b4"/>
   </g>
   <g id="patch_132">
    <path d="M 268.990234 273.312 
L 270.604379 273.312 
L 270.604379 57.337043 
L 268.990234 57.337043 
z
" clip-path="url(#p69f770a608)" style="fill: #1f77b4"/>
   </g>
   <g id="patch_133">
    <path d="M 270.604379 273.312 
L 272.218523 273.312 
L 272.218523 93.33287 
L 270.604379 93.33287 
z
" clip-path="url(#p69f770a608)" style="fill: #1f77b4"/>
   </g>
   <g id="patch_134">
    <path d="M 272.218523 273.312 
L 273.832668 273.312 
L 273.832668 89.659826 
L 272.218523 89.659826 
z
" clip-path="url(#p69f770a608)" style="fill: #1f77b4"/>
   </g>
   <g id="patch_135">
    <path d="M 273.832668 273.312 
L 275.446812 273.312 
L 275.446812 58.806261 
L 273.832668 58.806261 
z
" clip-path="url(#p69f770a608)" style="fill: #1f77b4"/>
   </g>
   <g id="patch_136">
    <path d="M 275.446812 273.312 
L 277.060957 273.312 
L 277.060957 78.640696 
L 275.446812 78.640696 
z
" clip-path="url(#p69f770a608)" style="fill: #1f77b4"/>
   </g>
   <g id="patch_137">
    <path d="M 277.060957 273.312 
L 278.675101 273.312 
L 278.675101 80.109913 
L 277.060957 80.109913 
z
" clip-path="url(#p69f770a608)" style="fill: #1f77b4"/>
   </g>
   <g id="patch_138">
    <path d="M 278.675101 273.312 
L 280.289246 273.312 
L 280.289246 67.621565 
L 278.675101 67.621565 
z
" clip-path="url(#p69f770a608)" style="fill: #1f77b4"/>
   </g>
   <g id="patch_139">
    <path d="M 280.289246 273.312 
L 281.90339 273.312 
L 281.90339 80.844522 
L 280.289246 80.844522 
z
" clip-path="url(#p69f770a608)" style="fill: #1f77b4"/>
   </g>
   <g id="patch_140">
    <path d="M 281.90339 273.312 
L 283.517535 273.312 
L 283.517535 84.517565 
L 281.90339 84.517565 
z
" clip-path="url(#p69f770a608)" style="fill: #1f77b4"/>
   </g>
   <g id="patch_141">
    <path d="M 283.517535 273.312 
L 285.131679 273.312 
L 285.131679 82.313739 
L 283.517535 82.313739 
z
" clip-path="url(#p69f770a608)" style="fill: #1f77b4"/>
   </g>
   <g id="patch_142">
    <path d="M 285.131679 273.312 
L 286.745824 273.312 
L 286.745824 98.47513 
L 285.131679 98.47513 
z
" clip-path="url(#p69f770a608)" style="fill: #1f77b4"/>
   </g>
   <g id="patch_143">
    <path d="M 286.745824 273.312 
L 288.359968 273.312 
L 288.359968 99.209739 
L 286.745824 99.209739 
z
" clip-path="url(#p69f770a608)" style="fill: #1f77b4"/>
   </g>
   <g id="patch_144">
    <path d="M 288.359968 273.312 
L 289.974113 273.312 
L 289.974113 71.294609 
L 288.359968 71.294609 
z
" clip-path="url(#p69f770a608)" style="fill: #1f77b4"/>
   </g>
   <g id="patch_145">
    <path d="M 289.974113 273.312 
L 291.588257 273.312 
L 291.588257 55.867826 
L 289.974113 55.867826 
z
" clip-path="url(#p69f770a608)" style="fill: #1f77b4"/>
   </g>
   <g id="patch_146">
    <path d="M 291.588257 273.312 
L 293.202401 273.312 
L 293.202401 98.47513 
L 291.588257 98.47513 
z
" clip-path="url(#p69f770a608)" style="fill: #1f77b4"/>
   </g>
   <g id="patch_147">
    <path d="M 293.202401 273.312 
L 294.816546 273.312 
L 294.816546 102.148174 
L 293.202401 102.148174 
z
" clip-path="url(#p69f770a608)" style="fill: #1f77b4"/>
   </g>
   <g id="patch_148">
    <path d="M 294.816546 273.312 
L 296.43069 273.312 
L 296.43069 104.352 
L 294.816546 104.352 
z
" clip-path="url(#p69f770a608)" style="fill: #1f77b4"/>
   </g>
   <g id="patch_149">
    <path d="M 296.43069 273.312 
L 298.044835 273.312 
L 298.044835 119.044174 
L 296.43069 119.044174 
z
" clip-path="url(#p69f770a608)" style="fill: #1f77b4"/>
   </g>
   <g id="patch_150">
    <path d="M 298.044835 273.312 
L 299.658979 273.312 
L 299.658979 91.863652 
L 298.044835 91.863652 
z
" clip-path="url(#p69f770a608)" style="fill: #1f77b4"/>
   </g>
   <g id="patch_151">
    <path d="M 299.658979 273.312 
L 301.273124 273.312 
L 301.273124 88.925217 
L 299.658979 88.925217 
z
" clip-path="url(#p69f770a608)" style="fill: #1f77b4"/>
   </g>
   <g id="patch_152">
    <path d="M 301.273124 273.312 
L 302.887268 273.312 
L 302.887268 111.698087 
L 301.273124 111.698087 
z
" clip-path="url(#p69f770a608)" style="fill: #1f77b4"/>
   </g>
   <g id="patch_153">
    <path d="M 302.887268 273.312 
L 304.501413 273.312 
L 304.501413 120.513391 
L 302.887268 120.513391 
z
" clip-path="url(#p69f770a608)" style="fill: #1f77b4"/>
   </g>
   <g id="patch_154">
    <path d="M 304.501413 273.312 
L 306.115557 273.312 
L 306.115557 137.409391 
L 304.501413 137.409391 
z
" clip-path="url(#p69f770a608)" style="fill: #1f77b4"/>
   </g>
   <g id="patch_155">
    <path d="M 306.115557 273.312 
L 307.729702 273.312 
L 307.729702 113.167304 
L 306.115557 113.167304 
z
" clip-path="url(#p69f770a608)" style="fill: #1f77b4"/>
   </g>
   <g id="patch_156">
    <path d="M 307.729702 273.312 
L 309.343846 273.312 
L 309.343846 105.086609 
L 307.729702 105.086609 
z
" clip-path="url(#p69f770a608)" style="fill: #1f77b4"/>
   </g>
   <g id="patch_157">
    <path d="M 309.343846 273.312 
L 310.957991 273.312 
L 310.957991 121.982609 
L 309.343846 121.982609 
z
" clip-path="url(#p69f770a608)" style="fill: #1f77b4"/>
   </g>
   <g id="patch_158">
    <path d="M 310.957991 273.312 
L 312.572135 273.312 
L 312.572135 113.901913 
L 310.957991 113.901913 
z
" clip-path="url(#p69f770a608)" style="fill: #1f77b4"/>
   </g>
   <g id="patch_159">
    <path d="M 312.572135 273.312 
L 314.18628 273.312 
L 314.18628 138.144 
L 312.572135 138.144 
z
" clip-path="url(#p69f770a608)" style="fill: #1f77b4"/>
   </g>
   <g id="patch_160">
    <path d="M 314.18628 273.312 
L 315.800424 273.312 
L 315.800424 131.532522 
L 314.18628 131.532522 
z
" clip-path="url(#p69f770a608)" style="fill: #1f77b4"/>
   </g>
   <g id="patch_161">
    <path d="M 315.800424 273.312 
L 317.414569 273.312 
L 317.414569 114.636522 
L 315.800424 114.636522 
z
" clip-path="url(#p69f770a608)" style="fill: #1f77b4"/>
   </g>
   <g id="patch_162">
    <path d="M 317.414569 273.312 
L 319.028713 273.312 
L 319.028713 125.655652 
L 317.414569 125.655652 
z
" clip-path="url(#p69f770a608)" style="fill: #1f77b4"/>
   </g>
   <g id="patch_163">
    <path d="M 319.028713 273.312 
L 320.642858 273.312 
L 320.642858 148.428522 
L 319.028713 148.428522 
z
" clip-path="url(#p69f770a608)" style="fill: #1f77b4"/>
   </g>
   <g id="patch_164">
    <path d="M 320.642858 273.312 
L 322.257002 273.312 
L 322.257002 125.655652 
L 320.642858 125.655652 
z
" clip-path="url(#p69f770a608)" style="fill: #1f77b4"/>
   </g>
   <g id="patch_165">
    <path d="M 322.257002 273.312 
L 323.871147 273.312 
L 323.871147 137.409391 
L 322.257002 137.409391 
z
" clip-path="url(#p69f770a608)" style="fill: #1f77b4"/>
   </g>
   <g id="patch_166">
    <path d="M 323.871147 273.312 
L 325.485291 273.312 
L 325.485291 143.286261 
L 323.871147 143.286261 
z
" clip-path="url(#p69f770a608)" style="fill: #1f77b4"/>
   </g>
   <g id="patch_167">
    <path d="M 325.485291 273.312 
L 327.099436 273.312 
L 327.099436 146.224696 
L 325.485291 146.224696 
z
" clip-path="url(#p69f770a608)" style="fill: #1f77b4"/>
   </g>
   <g id="patch_168">
    <path d="M 327.099436 273.312 
L 328.71358 273.312 
L 328.71358 154.305391 
L 327.099436 154.305391 
z
" clip-path="url(#p69f770a608)" style="fill: #1f77b4"/>
   </g>
   <g id="patch_169">
    <path d="M 328.71358 273.312 
L 330.327725 273.312 
L 330.327725 150.632348 
L 328.71358 150.632348 
z
" clip-path="url(#p69f770a608)" style="fill: #1f77b4"/>
   </g>
   <g id="patch_170">
    <path d="M 330.327725 273.312 
L 331.941869 273.312 
L 331.941869 156.509217 
L 330.327725 156.509217 
z
" clip-path="url(#p69f770a608)" style="fill: #1f77b4"/>
   </g>
   <g id="patch_171">
    <path d="M 331.941869 273.312 
L 333.556014 273.312 
L 333.556014 162.386087 
L 331.941869 162.386087 
z
" clip-path="url(#p69f770a608)" style="fill: #1f77b4"/>
   </g>
   <g id="patch_172">
    <path d="M 333.556014 273.312 
L 335.170158 273.312 
L 335.170158 171.936 
L 333.556014 171.936 
z
" clip-path="url(#p69f770a608)" style="fill: #1f77b4"/>
   </g>
   <g id="patch_173">
    <path d="M 335.170158 273.312 
L 336.784303 273.312 
L 336.784303 168.997565 
L 335.170158 168.997565 
z
" clip-path="url(#p69f770a608)" style="fill: #1f77b4"/>
   </g>
   <g id="patch_174">
    <path d="M 336.784303 273.312 
L 338.398447 273.312 
L 338.398447 155.04 
L 336.784303 155.04 
z
" clip-path="url(#p69f770a608)" style="fill: #1f77b4"/>
   </g>
   <g id="patch_175">
    <path d="M 338.398447 273.312 
L 340.012592 273.312 
L 340.012592 185.893565 
L 338.398447 185.893565 
z
" clip-path="url(#p69f770a608)" style="fill: #1f77b4"/>
   </g>
   <g id="patch_176">
    <path d="M 340.012592 273.312 
L 341.626736 273.312 
L 341.626736 192.505043 
L 340.012592 192.505043 
z
" clip-path="url(#p69f770a608)" style="fill: #1f77b4"/>
   </g>
   <g id="patch_177">
    <path d="M 341.626736 273.312 
L 343.240881 273.312 
L 343.240881 183.689739 
L 341.626736 183.689739 
z
" clip-path="url(#p69f770a608)" style="fill: #1f77b4"/>
   </g>
   <g id="patch_178">
    <path d="M 343.240881 273.312 
L 344.855025 273.312 
L 344.855025 171.936 
L 343.240881 171.936 
z
" clip-path="url(#p69f770a608)" style="fill: #1f77b4"/>
   </g>
   <g id="patch_179">
    <path d="M 344.855025 273.312 
L 346.46917 273.312 
L 346.46917 194.70887 
L 344.855025 194.70887 
z
" clip-path="url(#p69f770a608)" style="fill: #1f77b4"/>
   </g>
   <g id="patch_180">
    <path d="M 346.46917 273.312 
L 348.083314 273.312 
L 348.083314 182.95513 
L 346.46917 182.95513 
z
" clip-path="url(#p69f770a608)" style="fill: #1f77b4"/>
   </g>
   <g id="patch_181">
    <path d="M 348.083314 273.312 
L 349.697459 273.312 
L 349.697459 204.258783 
L 348.083314 204.258783 
z
" clip-path="url(#p69f770a608)" style="fill: #1f77b4"/>
   </g>
   <g id="patch_182">
    <path d="M 349.697459 273.312 
L 351.311603 273.312 
L 351.311603 204.993391 
L 349.697459 204.993391 
z
" clip-path="url(#p69f770a608)" style="fill: #1f77b4"/>
   </g>
   <g id="patch_183">
    <path d="M 351.311603 273.312 
L 352.925748 273.312 
L 352.925748 215.277913 
L 351.311603 215.277913 
z
" clip-path="url(#p69f770a608)" style="fill: #1f77b4"/>
   </g>
   <g id="patch_184">
    <path d="M 352.925748 273.312 
L 354.539892 273.312 
L 354.539892 197.647304 
L 352.925748 197.647304 
z
" clip-path="url(#p69f770a608)" style="fill: #1f77b4"/>
   </g>
   <g id="patch_185">
    <path d="M 354.539892 273.312 
L 356.154037 273.312 
L 356.154037 215.277913 
L 354.539892 215.277913 
z
" clip-path="url(#p69f770a608)" style="fill: #1f77b4"/>
   </g>
   <g id="patch_186">
    <path d="M 356.154037 273.312 
L 357.768181 273.312 
L 357.768181 200.585739 
L 356.154037 200.585739 
z
" clip-path="url(#p69f770a608)" style="fill: #1f77b4"/>
   </g>
   <g id="patch_187">
    <path d="M 357.768181 273.312 
L 359.382326 273.312 
L 359.382326 212.339478 
L 357.768181 212.339478 
z
" clip-path="url(#p69f770a608)" style="fill: #1f77b4"/>
   </g>
   <g id="patch_188">
    <path d="M 359.382326 273.312 
L 360.99647 273.312 
L 360.99647 222.624 
L 359.382326 222.624 
z
" clip-path="url(#p69f770a608)" style="fill: #1f77b4"/>
   </g>
   <g id="patch_189">
    <path d="M 360.99647 273.312 
L 362.610615 273.312 
L 362.610615 214.543304 
L 360.99647 214.543304 
z
" clip-path="url(#p69f770a608)" style="fill: #1f77b4"/>
   </g>
   <g id="patch_190">
    <path d="M 362.610615 273.312 
L 364.224759 273.312 
L 364.224759 221.889391 
L 362.610615 221.889391 
z
" clip-path="url(#p69f770a608)" style="fill: #1f77b4"/>
   </g>
   <g id="patch_191">
    <path d="M 364.224759 273.312 
L 365.838904 273.312 
L 365.838904 237.316174 
L 364.224759 237.316174 
z
" clip-path="url(#p69f770a608)" style="fill: #1f77b4"/>
   </g>
   <g id="patch_192">
    <path d="M 365.838904 273.312 
L 367.453048 273.312 
L 367.453048 238.050783 
L 365.838904 238.050783 
z
" clip-path="url(#p69f770a608)" style="fill: #1f77b4"/>
   </g>
   <g id="patch_193">
    <path d="M 367.453048 273.312 
L 369.067192 273.312 
L 369.067192 232.173913 
L 367.453048 232.173913 
z
" clip-path="url(#p69f770a608)" style="fill: #1f77b4"/>
   </g>
   <g id="patch_194">
    <path d="M 369.067192 273.312 
L 370.681337 273.312 
L 370.681337 232.173913 
L 369.067192 232.173913 
z
" clip-path="url(#p69f770a608)" style="fill: #1f77b4"/>
   </g>
   <g id="patch_195">
    <path d="M 370.681337 273.312 
L 372.295481 273.312 
L 372.295481 246.131478 
L 370.681337 246.131478 
z
" clip-path="url(#p69f770a608)" style="fill: #1f77b4"/>
   </g>
   <g id="patch_196">
    <path d="M 372.295481 273.312 
L 373.909626 273.312 
L 373.909626 251.273739 
L 372.295481 251.273739 
z
" clip-path="url(#p69f770a608)" style="fill: #1f77b4"/>
   </g>
   <g id="patch_197">
    <path d="M 373.909626 273.312 
L 375.52377 273.312 
L 375.52377 248.335304 
L 373.909626 248.335304 
z
" clip-path="url(#p69f770a608)" style="fill: #1f77b4"/>
   </g>
   <g id="patch_198">
    <path d="M 375.52377 273.312 
L 377.137915 273.312 
L 377.137915 256.416 
L 375.52377 256.416 
z
" clip-path="url(#p69f770a608)" style="fill: #1f77b4"/>
   </g>
   <g id="patch_199">
    <path d="M 377.137915 273.312 
L 378.752059 273.312 
L 378.752059 259.354435 
L 377.137915 259.354435 
z
" clip-path="url(#p69f770a608)" style="fill: #1f77b4"/>
   </g>
   <g id="patch_200">
    <path d="M 378.752059 273.312 
L 380.366204 273.312 
L 380.366204 257.885217 
L 378.752059 257.885217 
z
" clip-path="url(#p69f770a608)" style="fill: #1f77b4"/>
   </g>
   <g id="patch_201">
    <path d="M 380.366204 273.312 
L 381.980348 273.312 
L 381.980348 263.027478 
L 380.366204 263.027478 
z
" clip-path="url(#p69f770a608)" style="fill: #1f77b4"/>
   </g>
   <g id="patch_202">
    <path d="M 381.980348 273.312 
L 383.594493 273.312 
L 383.594493 267.43513 
L 381.980348 267.43513 
z
" clip-path="url(#p69f770a608)" style="fill: #1f77b4"/>
   </g>
   <g id="matplotlib.axis_1">
    <g id="xtick_1">
     <g id="line2d_1">
      <defs>
       <path id="md287297a65" d="M 0 0 
L 0 3.5 
" style="stroke: #000000; stroke-width: 0.8"/>
      </defs>
      <g>
       <use xlink:href="#md287297a65" x="60.013977" y="273.312" style="stroke: #000000; stroke-width: 0.8"/>
      </g>
     </g>
     <g id="text_1">
      <!-- 0.0 -->
      <g transform="translate(52.062415 287.910437)scale(0.1 -0.1)">
       <defs>
        <path id="DejaVuSans-30" d="M 2034 4250 
Q 1547 4250 1301 3770 
Q 1056 3291 1056 2328 
Q 1056 1369 1301 889 
Q 1547 409 2034 409 
Q 2525 409 2770 889 
Q 3016 1369 3016 2328 
Q 3016 3291 2770 3770 
Q 2525 4250 2034 4250 
z
M 2034 4750 
Q 2819 4750 3233 4129 
Q 3647 3509 3647 2328 
Q 3647 1150 3233 529 
Q 2819 -91 2034 -91 
Q 1250 -91 836 529 
Q 422 1150 422 2328 
Q 422 3509 836 4129 
Q 1250 4750 2034 4750 
z
" transform="scale(0.015625)"/>
        <path id="DejaVuSans-2e" d="M 684 794 
L 1344 794 
L 1344 0 
L 684 0 
L 684 794 
z
" transform="scale(0.015625)"/>
       </defs>
       <use xlink:href="#DejaVuSans-30"/>
       <use xlink:href="#DejaVuSans-2e" x="63.623047"/>
       <use xlink:href="#DejaVuSans-30" x="95.410156"/>
      </g>
     </g>
    </g>
    <g id="xtick_2">
     <g id="line2d_2">
      <g>
       <use xlink:href="#md287297a65" x="101.350278" y="273.312" style="stroke: #000000; stroke-width: 0.8"/>
      </g>
     </g>
     <g id="text_2">
      <!-- 0.2 -->
      <g transform="translate(93.398715 287.910437)scale(0.1 -0.1)">
       <defs>
        <path id="DejaVuSans-32" d="M 1228 531 
L 3431 531 
L 3431 0 
L 469 0 
L 469 531 
Q 828 903 1448 1529 
Q 2069 2156 2228 2338 
Q 2531 2678 2651 2914 
Q 2772 3150 2772 3378 
Q 2772 3750 2511 3984 
Q 2250 4219 1831 4219 
Q 1534 4219 1204 4116 
Q 875 4013 500 3803 
L 500 4441 
Q 881 4594 1212 4672 
Q 1544 4750 1819 4750 
Q 2544 4750 2975 4387 
Q 3406 4025 3406 3419 
Q 3406 3131 3298 2873 
Q 3191 2616 2906 2266 
Q 2828 2175 2409 1742 
Q 1991 1309 1228 531 
z
" transform="scale(0.015625)"/>
       </defs>
       <use xlink:href="#DejaVuSans-30"/>
       <use xlink:href="#DejaVuSans-2e" x="63.623047"/>
       <use xlink:href="#DejaVuSans-32" x="95.410156"/>
      </g>
     </g>
    </g>
    <g id="xtick_3">
     <g id="line2d_3">
      <g>
       <use xlink:href="#md287297a65" x="142.686578" y="273.312" style="stroke: #000000; stroke-width: 0.8"/>
      </g>
     </g>
     <g id="text_3">
      <!-- 0.4 -->
      <g transform="translate(134.735016 287.910437)scale(0.1 -0.1)">
       <defs>
        <path id="DejaVuSans-34" d="M 2419 4116 
L 825 1625 
L 2419 1625 
L 2419 4116 
z
M 2253 4666 
L 3047 4666 
L 3047 1625 
L 3713 1625 
L 3713 1100 
L 3047 1100 
L 3047 0 
L 2419 0 
L 2419 1100 
L 313 1100 
L 313 1709 
L 2253 4666 
z
" transform="scale(0.015625)"/>
       </defs>
       <use xlink:href="#DejaVuSans-30"/>
       <use xlink:href="#DejaVuSans-2e" x="63.623047"/>
       <use xlink:href="#DejaVuSans-34" x="95.410156"/>
      </g>
     </g>
    </g>
    <g id="xtick_4">
     <g id="line2d_4">
      <g>
       <use xlink:href="#md287297a65" x="184.022879" y="273.312" style="stroke: #000000; stroke-width: 0.8"/>
      </g>
     </g>
     <g id="text_4">
      <!-- 0.6 -->
      <g transform="translate(176.071316 287.910437)scale(0.1 -0.1)">
       <defs>
        <path id="DejaVuSans-36" d="M 2113 2584 
Q 1688 2584 1439 2293 
Q 1191 2003 1191 1497 
Q 1191 994 1439 701 
Q 1688 409 2113 409 
Q 2538 409 2786 701 
Q 3034 994 3034 1497 
Q 3034 2003 2786 2293 
Q 2538 2584 2113 2584 
z
M 3366 4563 
L 3366 3988 
Q 3128 4100 2886 4159 
Q 2644 4219 2406 4219 
Q 1781 4219 1451 3797 
Q 1122 3375 1075 2522 
Q 1259 2794 1537 2939 
Q 1816 3084 2150 3084 
Q 2853 3084 3261 2657 
Q 3669 2231 3669 1497 
Q 3669 778 3244 343 
Q 2819 -91 2113 -91 
Q 1303 -91 875 529 
Q 447 1150 447 2328 
Q 447 3434 972 4092 
Q 1497 4750 2381 4750 
Q 2619 4750 2861 4703 
Q 3103 4656 3366 4563 
z
" transform="scale(0.015625)"/>
       </defs>
       <use xlink:href="#DejaVuSans-30"/>
       <use xlink:href="#DejaVuSans-2e" x="63.623047"/>
       <use xlink:href="#DejaVuSans-36" x="95.410156"/>
      </g>
     </g>
    </g>
    <g id="xtick_5">
     <g id="line2d_5">
      <g>
       <use xlink:href="#md287297a65" x="225.35918" y="273.312" style="stroke: #000000; stroke-width: 0.8"/>
      </g>
     </g>
     <g id="text_5">
      <!-- 0.8 -->
      <g transform="translate(217.407617 287.910437)scale(0.1 -0.1)">
       <defs>
        <path id="DejaVuSans-38" d="M 2034 2216 
Q 1584 2216 1326 1975 
Q 1069 1734 1069 1313 
Q 1069 891 1326 650 
Q 1584 409 2034 409 
Q 2484 409 2743 651 
Q 3003 894 3003 1313 
Q 3003 1734 2745 1975 
Q 2488 2216 2034 2216 
z
M 1403 2484 
Q 997 2584 770 2862 
Q 544 3141 544 3541 
Q 544 4100 942 4425 
Q 1341 4750 2034 4750 
Q 2731 4750 3128 4425 
Q 3525 4100 3525 3541 
Q 3525 3141 3298 2862 
Q 3072 2584 2669 2484 
Q 3125 2378 3379 2068 
Q 3634 1759 3634 1313 
Q 3634 634 3220 271 
Q 2806 -91 2034 -91 
Q 1263 -91 848 271 
Q 434 634 434 1313 
Q 434 1759 690 2068 
Q 947 2378 1403 2484 
z
M 1172 3481 
Q 1172 3119 1398 2916 
Q 1625 2713 2034 2713 
Q 2441 2713 2670 2916 
Q 2900 3119 2900 3481 
Q 2900 3844 2670 4047 
Q 2441 4250 2034 4250 
Q 1625 4250 1398 4047 
Q 1172 3844 1172 3481 
z
" transform="scale(0.015625)"/>
       </defs>
       <use xlink:href="#DejaVuSans-30"/>
       <use xlink:href="#DejaVuSans-2e" x="63.623047"/>
       <use xlink:href="#DejaVuSans-38" x="95.410156"/>
      </g>
     </g>
    </g>
    <g id="xtick_6">
     <g id="line2d_6">
      <g>
       <use xlink:href="#md287297a65" x="266.69548" y="273.312" style="stroke: #000000; stroke-width: 0.8"/>
      </g>
     </g>
     <g id="text_6">
      <!-- 1.0 -->
      <g transform="translate(258.743918 287.910437)scale(0.1 -0.1)">
       <defs>
        <path id="DejaVuSans-31" d="M 794 531 
L 1825 531 
L 1825 4091 
L 703 3866 
L 703 4441 
L 1819 4666 
L 2450 4666 
L 2450 531 
L 3481 531 
L 3481 0 
L 794 0 
L 794 531 
z
" transform="scale(0.015625)"/>
       </defs>
       <use xlink:href="#DejaVuSans-31"/>
       <use xlink:href="#DejaVuSans-2e" x="63.623047"/>
       <use xlink:href="#DejaVuSans-30" x="95.410156"/>
      </g>
     </g>
    </g>
    <g id="xtick_7">
     <g id="line2d_7">
      <g>
       <use xlink:href="#md287297a65" x="308.031781" y="273.312" style="stroke: #000000; stroke-width: 0.8"/>
      </g>
     </g>
     <g id="text_7">
      <!-- 1.2 -->
      <g transform="translate(300.080218 287.910437)scale(0.1 -0.1)">
       <use xlink:href="#DejaVuSans-31"/>
       <use xlink:href="#DejaVuSans-2e" x="63.623047"/>
       <use xlink:href="#DejaVuSans-32" x="95.410156"/>
      </g>
     </g>
    </g>
    <g id="xtick_8">
     <g id="line2d_8">
      <g>
       <use xlink:href="#md287297a65" x="349.368081" y="273.312" style="stroke: #000000; stroke-width: 0.8"/>
      </g>
     </g>
     <g id="text_8">
      <!-- 1.4 -->
      <g transform="translate(341.416519 287.910437)scale(0.1 -0.1)">
       <use xlink:href="#DejaVuSans-31"/>
       <use xlink:href="#DejaVuSans-2e" x="63.623047"/>
       <use xlink:href="#DejaVuSans-34" x="95.410156"/>
      </g>
     </g>
    </g>
    <g id="xtick_9">
     <g id="line2d_9">
      <g>
       <use xlink:href="#md287297a65" x="390.704382" y="273.312" style="stroke: #000000; stroke-width: 0.8"/>
      </g>
     </g>
     <g id="text_9">
      <!-- 1.6 -->
      <g transform="translate(382.752819 287.910437)scale(0.1 -0.1)">
       <use xlink:href="#DejaVuSans-31"/>
       <use xlink:href="#DejaVuSans-2e" x="63.623047"/>
       <use xlink:href="#DejaVuSans-36" x="95.410156"/>
      </g>
     </g>
    </g>
    <g id="text_10">
     <!-- Angle with normal (rad) -->
     <g transform="translate(163.023281 301.588562)scale(0.1 -0.1)">
      <defs>
       <path id="DejaVuSans-41" d="M 2188 4044 
L 1331 1722 
L 3047 1722 
L 2188 4044 
z
M 1831 4666 
L 2547 4666 
L 4325 0 
L 3669 0 
L 3244 1197 
L 1141 1197 
L 716 0 
L 50 0 
L 1831 4666 
z
" transform="scale(0.015625)"/>
       <path id="DejaVuSans-6e" d="M 3513 2113 
L 3513 0 
L 2938 0 
L 2938 2094 
Q 2938 2591 2744 2837 
Q 2550 3084 2163 3084 
Q 1697 3084 1428 2787 
Q 1159 2491 1159 1978 
L 1159 0 
L 581 0 
L 581 3500 
L 1159 3500 
L 1159 2956 
Q 1366 3272 1645 3428 
Q 1925 3584 2291 3584 
Q 2894 3584 3203 3211 
Q 3513 2838 3513 2113 
z
" transform="scale(0.015625)"/>
       <path id="DejaVuSans-67" d="M 2906 1791 
Q 2906 2416 2648 2759 
Q 2391 3103 1925 3103 
Q 1463 3103 1205 2759 
Q 947 2416 947 1791 
Q 947 1169 1205 825 
Q 1463 481 1925 481 
Q 2391 481 2648 825 
Q 2906 1169 2906 1791 
z
M 3481 434 
Q 3481 -459 3084 -895 
Q 2688 -1331 1869 -1331 
Q 1566 -1331 1297 -1286 
Q 1028 -1241 775 -1147 
L 775 -588 
Q 1028 -725 1275 -790 
Q 1522 -856 1778 -856 
Q 2344 -856 2625 -561 
Q 2906 -266 2906 331 
L 2906 616 
Q 2728 306 2450 153 
Q 2172 0 1784 0 
Q 1141 0 747 490 
Q 353 981 353 1791 
Q 353 2603 747 3093 
Q 1141 3584 1784 3584 
Q 2172 3584 2450 3431 
Q 2728 3278 2906 2969 
L 2906 3500 
L 3481 3500 
L 3481 434 
z
" transform="scale(0.015625)"/>
       <path id="DejaVuSans-6c" d="M 603 4863 
L 1178 4863 
L 1178 0 
L 603 0 
L 603 4863 
z
" transform="scale(0.015625)"/>
       <path id="DejaVuSans-65" d="M 3597 1894 
L 3597 1613 
L 953 1613 
Q 991 1019 1311 708 
Q 1631 397 2203 397 
Q 2534 397 2845 478 
Q 3156 559 3463 722 
L 3463 178 
Q 3153 47 2828 -22 
Q 2503 -91 2169 -91 
Q 1331 -91 842 396 
Q 353 884 353 1716 
Q 353 2575 817 3079 
Q 1281 3584 2069 3584 
Q 2775 3584 3186 3129 
Q 3597 2675 3597 1894 
z
M 3022 2063 
Q 3016 2534 2758 2815 
Q 2500 3097 2075 3097 
Q 1594 3097 1305 2825 
Q 1016 2553 972 2059 
L 3022 2063 
z
" transform="scale(0.015625)"/>
       <path id="DejaVuSans-20" transform="scale(0.015625)"/>
       <path id="DejaVuSans-77" d="M 269 3500 
L 844 3500 
L 1563 769 
L 2278 3500 
L 2956 3500 
L 3675 769 
L 4391 3500 
L 4966 3500 
L 4050 0 
L 3372 0 
L 2619 2869 
L 1863 0 
L 1184 0 
L 269 3500 
z
" transform="scale(0.015625)"/>
       <path id="DejaVuSans-69" d="M 603 3500 
L 1178 3500 
L 1178 0 
L 603 0 
L 603 3500 
z
M 603 4863 
L 1178 4863 
L 1178 4134 
L 603 4134 
L 603 4863 
z
" transform="scale(0.015625)"/>
       <path id="DejaVuSans-74" d="M 1172 4494 
L 1172 3500 
L 2356 3500 
L 2356 3053 
L 1172 3053 
L 1172 1153 
Q 1172 725 1289 603 
Q 1406 481 1766 481 
L 2356 481 
L 2356 0 
L 1766 0 
Q 1100 0 847 248 
Q 594 497 594 1153 
L 594 3053 
L 172 3053 
L 172 3500 
L 594 3500 
L 594 4494 
L 1172 4494 
z
" transform="scale(0.015625)"/>
       <path id="DejaVuSans-68" d="M 3513 2113 
L 3513 0 
L 2938 0 
L 2938 2094 
Q 2938 2591 2744 2837 
Q 2550 3084 2163 3084 
Q 1697 3084 1428 2787 
Q 1159 2491 1159 1978 
L 1159 0 
L 581 0 
L 581 4863 
L 1159 4863 
L 1159 2956 
Q 1366 3272 1645 3428 
Q 1925 3584 2291 3584 
Q 2894 3584 3203 3211 
Q 3513 2838 3513 2113 
z
" transform="scale(0.015625)"/>
       <path id="DejaVuSans-6f" d="M 1959 3097 
Q 1497 3097 1228 2736 
Q 959 2375 959 1747 
Q 959 1119 1226 758 
Q 1494 397 1959 397 
Q 2419 397 2687 759 
Q 2956 1122 2956 1747 
Q 2956 2369 2687 2733 
Q 2419 3097 1959 3097 
z
M 1959 3584 
Q 2709 3584 3137 3096 
Q 3566 2609 3566 1747 
Q 3566 888 3137 398 
Q 2709 -91 1959 -91 
Q 1206 -91 779 398 
Q 353 888 353 1747 
Q 353 2609 779 3096 
Q 1206 3584 1959 3584 
z
" transform="scale(0.015625)"/>
       <path id="DejaVuSans-72" d="M 2631 2963 
Q 2534 3019 2420 3045 
Q 2306 3072 2169 3072 
Q 1681 3072 1420 2755 
Q 1159 2438 1159 1844 
L 1159 0 
L 581 0 
L 581 3500 
L 1159 3500 
L 1159 2956 
Q 1341 3275 1631 3429 
Q 1922 3584 2338 3584 
Q 2397 3584 2469 3576 
Q 2541 3569 2628 3553 
L 2631 2963 
z
" transform="scale(0.015625)"/>
       <path id="DejaVuSans-6d" d="M 3328 2828 
Q 3544 3216 3844 3400 
Q 4144 3584 4550 3584 
Q 5097 3584 5394 3201 
Q 5691 2819 5691 2113 
L 5691 0 
L 5113 0 
L 5113 2094 
Q 5113 2597 4934 2840 
Q 4756 3084 4391 3084 
Q 3944 3084 3684 2787 
Q 3425 2491 3425 1978 
L 3425 0 
L 2847 0 
L 2847 2094 
Q 2847 2600 2669 2842 
Q 2491 3084 2119 3084 
Q 1678 3084 1418 2786 
Q 1159 2488 1159 1978 
L 1159 0 
L 581 0 
L 581 3500 
L 1159 3500 
L 1159 2956 
Q 1356 3278 1631 3431 
Q 1906 3584 2284 3584 
Q 2666 3584 2933 3390 
Q 3200 3197 3328 2828 
z
" transform="scale(0.015625)"/>
       <path id="DejaVuSans-61" d="M 2194 1759 
Q 1497 1759 1228 1600 
Q 959 1441 959 1056 
Q 959 750 1161 570 
Q 1363 391 1709 391 
Q 2188 391 2477 730 
Q 2766 1069 2766 1631 
L 2766 1759 
L 2194 1759 
z
M 3341 1997 
L 3341 0 
L 2766 0 
L 2766 531 
Q 2569 213 2275 61 
Q 1981 -91 1556 -91 
Q 1019 -91 701 211 
Q 384 513 384 1019 
Q 384 1609 779 1909 
Q 1175 2209 1959 2209 
L 2766 2209 
L 2766 2266 
Q 2766 2663 2505 2880 
Q 2244 3097 1772 3097 
Q 1472 3097 1187 3025 
Q 903 2953 641 2809 
L 641 3341 
Q 956 3463 1253 3523 
Q 1550 3584 1831 3584 
Q 2591 3584 2966 3190 
Q 3341 2797 3341 1997 
z
" transform="scale(0.015625)"/>
       <path id="DejaVuSans-28" d="M 1984 4856 
Q 1566 4138 1362 3434 
Q 1159 2731 1159 2009 
Q 1159 1288 1364 580 
Q 1569 -128 1984 -844 
L 1484 -844 
Q 1016 -109 783 600 
Q 550 1309 550 2009 
Q 550 2706 781 3412 
Q 1013 4119 1484 4856 
L 1984 4856 
z
" transform="scale(0.015625)"/>
       <path id="DejaVuSans-64" d="M 2906 2969 
L 2906 4863 
L 3481 4863 
L 3481 0 
L 2906 0 
L 2906 525 
Q 2725 213 2448 61 
Q 2172 -91 1784 -91 
Q 1150 -91 751 415 
Q 353 922 353 1747 
Q 353 2572 751 3078 
Q 1150 3584 1784 3584 
Q 2172 3584 2448 3432 
Q 2725 3281 2906 2969 
z
M 947 1747 
Q 947 1113 1208 752 
Q 1469 391 1925 391 
Q 2381 391 2643 752 
Q 2906 1113 2906 1747 
Q 2906 2381 2643 2742 
Q 2381 3103 1925 3103 
Q 1469 3103 1208 2742 
Q 947 2381 947 1747 
z
" transform="scale(0.015625)"/>
       <path id="DejaVuSans-29" d="M 513 4856 
L 1013 4856 
Q 1481 4119 1714 3412 
Q 1947 2706 1947 2009 
Q 1947 1309 1714 600 
Q 1481 -109 1013 -844 
L 513 -844 
Q 928 -128 1133 580 
Q 1338 1288 1338 2009 
Q 1338 2731 1133 3434 
Q 928 4138 513 4856 
z
" transform="scale(0.015625)"/>
      </defs>
      <use xlink:href="#DejaVuSans-41"/>
      <use xlink:href="#DejaVuSans-6e" x="68.408203"/>
      <use xlink:href="#DejaVuSans-67" x="131.787109"/>
      <use xlink:href="#DejaVuSans-6c" x="195.263672"/>
      <use xlink:href="#DejaVuSans-65" x="223.046875"/>
      <use xlink:href="#DejaVuSans-20" x="284.570312"/>
      <use xlink:href="#DejaVuSans-77" x="316.357422"/>
      <use xlink:href="#DejaVuSans-69" x="398.144531"/>
      <use xlink:href="#DejaVuSans-74" x="425.927734"/>
      <use xlink:href="#DejaVuSans-68" x="465.136719"/>
      <use xlink:href="#DejaVuSans-20" x="528.515625"/>
      <use xlink:href="#DejaVuSans-6e" x="560.302734"/>
      <use xlink:href="#DejaVuSans-6f" x="623.681641"/>
      <use xlink:href="#DejaVuSans-72" x="684.863281"/>
      <use xlink:href="#DejaVuSans-6d" x="724.226562"/>
      <use xlink:href="#DejaVuSans-61" x="821.638672"/>
      <use xlink:href="#DejaVuSans-6c" x="882.917969"/>
      <use xlink:href="#DejaVuSans-20" x="910.701172"/>
      <use xlink:href="#DejaVuSans-28" x="942.488281"/>
      <use xlink:href="#DejaVuSans-72" x="981.501953"/>
      <use xlink:href="#DejaVuSans-61" x="1022.615234"/>
      <use xlink:href="#DejaVuSans-64" x="1083.894531"/>
      <use xlink:href="#DejaVuSans-29" x="1147.371094"/>
     </g>
    </g>
   </g>
   <g id="matplotlib.axis_2">
    <g id="ytick_1">
     <g id="line2d_10">
      <defs>
       <path id="mc660127d0c" d="M 0 0 
L -3.5 0 
" style="stroke: #000000; stroke-width: 0.8"/>
      </defs>
      <g>
       <use xlink:href="#mc660127d0c" x="43.78125" y="273.312" style="stroke: #000000; stroke-width: 0.8"/>
      </g>
     </g>
     <g id="text_11">
      <!-- 0.0 -->
      <g transform="translate(20.878125 277.111219)scale(0.1 -0.1)">
       <use xlink:href="#DejaVuSans-30"/>
       <use xlink:href="#DejaVuSans-2e" x="63.623047"/>
       <use xlink:href="#DejaVuSans-30" x="95.410156"/>
      </g>
     </g>
    </g>
    <g id="ytick_2">
     <g id="line2d_11">
      <g>
       <use xlink:href="#mc660127d0c" x="43.78125" y="227.414731" style="stroke: #000000; stroke-width: 0.8"/>
      </g>
     </g>
     <g id="text_12">
      <!-- 0.2 -->
      <g transform="translate(20.878125 231.213949)scale(0.1 -0.1)">
       <use xlink:href="#DejaVuSans-30"/>
       <use xlink:href="#DejaVuSans-2e" x="63.623047"/>
       <use xlink:href="#DejaVuSans-32" x="95.410156"/>
      </g>
     </g>
    </g>
    <g id="ytick_3">
     <g id="line2d_12">
      <g>
       <use xlink:href="#mc660127d0c" x="43.78125" y="181.517461" style="stroke: #000000; stroke-width: 0.8"/>
      </g>
     </g>
     <g id="text_13">
      <!-- 0.4 -->
      <g transform="translate(20.878125 185.31668)scale(0.1 -0.1)">
       <use xlink:href="#DejaVuSans-30"/>
       <use xlink:href="#DejaVuSans-2e" x="63.623047"/>
       <use xlink:href="#DejaVuSans-34" x="95.410156"/>
      </g>
     </g>
    </g>
    <g id="ytick_4">
     <g id="line2d_13">
      <g>
       <use xlink:href="#mc660127d0c" x="43.78125" y="135.620192" style="stroke: #000000; stroke-width: 0.8"/>
      </g>
     </g>
     <g id="text_14">
      <!-- 0.6 -->
      <g transform="translate(20.878125 139.41941)scale(0.1 -0.1)">
       <use xlink:href="#DejaVuSans-30"/>
       <use xlink:href="#DejaVuSans-2e" x="63.623047"/>
       <use xlink:href="#DejaVuSans-36" x="95.410156"/>
      </g>
     </g>
    </g>
    <g id="ytick_5">
     <g id="line2d_14">
      <g>
       <use xlink:href="#mc660127d0c" x="43.78125" y="89.722922" style="stroke: #000000; stroke-width: 0.8"/>
      </g>
     </g>
     <g id="text_15">
      <!-- 0.8 -->
      <g transform="translate(20.878125 93.522141)scale(0.1 -0.1)">
       <use xlink:href="#DejaVuSans-30"/>
       <use xlink:href="#DejaVuSans-2e" x="63.623047"/>
       <use xlink:href="#DejaVuSans-38" x="95.410156"/>
      </g>
     </g>
    </g>
    <g id="ytick_6">
     <g id="line2d_15">
      <g>
       <use xlink:href="#mc660127d0c" x="43.78125" y="43.825653" style="stroke: #000000; stroke-width: 0.8"/>
      </g>
     </g>
     <g id="text_16">
      <!-- 1.0 -->
      <g transform="translate(20.878125 47.624872)scale(0.1 -0.1)">
       <use xlink:href="#DejaVuSans-31"/>
       <use xlink:href="#DejaVuSans-2e" x="63.623047"/>
       <use xlink:href="#DejaVuSans-30" x="95.410156"/>
      </g>
     </g>
    </g>
    <g id="text_17">
     <!-- Probability density -->
     <g transform="translate(14.798438 186.606781)rotate(-90)scale(0.1 -0.1)">
      <defs>
       <path id="DejaVuSans-50" d="M 1259 4147 
L 1259 2394 
L 2053 2394 
Q 2494 2394 2734 2622 
Q 2975 2850 2975 3272 
Q 2975 3691 2734 3919 
Q 2494 4147 2053 4147 
L 1259 4147 
z
M 628 4666 
L 2053 4666 
Q 2838 4666 3239 4311 
Q 3641 3956 3641 3272 
Q 3641 2581 3239 2228 
Q 2838 1875 2053 1875 
L 1259 1875 
L 1259 0 
L 628 0 
L 628 4666 
z
" transform="scale(0.015625)"/>
       <path id="DejaVuSans-62" d="M 3116 1747 
Q 3116 2381 2855 2742 
Q 2594 3103 2138 3103 
Q 1681 3103 1420 2742 
Q 1159 2381 1159 1747 
Q 1159 1113 1420 752 
Q 1681 391 2138 391 
Q 2594 391 2855 752 
Q 3116 1113 3116 1747 
z
M 1159 2969 
Q 1341 3281 1617 3432 
Q 1894 3584 2278 3584 
Q 2916 3584 3314 3078 
Q 3713 2572 3713 1747 
Q 3713 922 3314 415 
Q 2916 -91 2278 -91 
Q 1894 -91 1617 61 
Q 1341 213 1159 525 
L 1159 0 
L 581 0 
L 581 4863 
L 1159 4863 
L 1159 2969 
z
" transform="scale(0.015625)"/>
       <path id="DejaVuSans-79" d="M 2059 -325 
Q 1816 -950 1584 -1140 
Q 1353 -1331 966 -1331 
L 506 -1331 
L 506 -850 
L 844 -850 
Q 1081 -850 1212 -737 
Q 1344 -625 1503 -206 
L 1606 56 
L 191 3500 
L 800 3500 
L 1894 763 
L 2988 3500 
L 3597 3500 
L 2059 -325 
z
" transform="scale(0.015625)"/>
       <path id="DejaVuSans-73" d="M 2834 3397 
L 2834 2853 
Q 2591 2978 2328 3040 
Q 2066 3103 1784 3103 
Q 1356 3103 1142 2972 
Q 928 2841 928 2578 
Q 928 2378 1081 2264 
Q 1234 2150 1697 2047 
L 1894 2003 
Q 2506 1872 2764 1633 
Q 3022 1394 3022 966 
Q 3022 478 2636 193 
Q 2250 -91 1575 -91 
Q 1294 -91 989 -36 
Q 684 19 347 128 
L 347 722 
Q 666 556 975 473 
Q 1284 391 1588 391 
Q 1994 391 2212 530 
Q 2431 669 2431 922 
Q 2431 1156 2273 1281 
Q 2116 1406 1581 1522 
L 1381 1569 
Q 847 1681 609 1914 
Q 372 2147 372 2553 
Q 372 3047 722 3315 
Q 1072 3584 1716 3584 
Q 2034 3584 2315 3537 
Q 2597 3491 2834 3397 
z
" transform="scale(0.015625)"/>
      </defs>
      <use xlink:href="#DejaVuSans-50"/>
      <use xlink:href="#DejaVuSans-72" x="58.552734"/>
      <use xlink:href="#DejaVuSans-6f" x="97.416016"/>
      <use xlink:href="#DejaVuSans-62" x="158.597656"/>
      <use xlink:href="#DejaVuSans-61" x="222.074219"/>
      <use xlink:href="#DejaVuSans-62" x="283.353516"/>
      <use xlink:href="#DejaVuSans-69" x="346.830078"/>
      <use xlink:href="#DejaVuSans-6c" x="374.613281"/>
      <use xlink:href="#DejaVuSans-69" x="402.396484"/>
      <use xlink:href="#DejaVuSans-74" x="430.179688"/>
      <use xlink:href="#DejaVuSans-79" x="469.388672"/>
      <use xlink:href="#DejaVuSans-20" x="528.568359"/>
      <use xlink:href="#DejaVuSans-64" x="560.355469"/>
      <use xlink:href="#DejaVuSans-65" x="623.832031"/>
      <use xlink:href="#DejaVuSans-6e" x="685.355469"/>
      <use xlink:href="#DejaVuSans-73" x="748.734375"/>
      <use xlink:href="#DejaVuSans-69" x="800.833984"/>
      <use xlink:href="#DejaVuSans-74" x="828.617188"/>
      <use xlink:href="#DejaVuSans-79" x="867.826172"/>
     </g>
    </g>
   </g>
   <g id="line2d_16">
    <path d="M 60.013977 273.312 
L 79.837728 229.559362 
L 90.237073 207.148977 
L 99.01152 188.751928 
L 106.811029 172.906443 
L 113.960578 158.881462 
L 120.460169 146.604866 
L 126.63478 135.405476 
L 132.484411 125.248915 
L 138.009063 116.091571 
L 143.208736 107.882815 
L 148.408408 100.092784 
L 153.283101 93.187468 
L 157.832814 87.103752 
L 162.382528 81.380908 
L 166.932241 76.030027 
L 171.156975 71.403487 
L 175.381709 67.11435 
L 179.281463 63.460826 
L 183.181217 60.106109 
L 187.080972 57.054976 
L 190.655746 54.528512 
L 194.230521 52.263822 
L 197.805296 50.263615 
L 201.380071 48.530284 
L 204.629866 47.187866 
L 207.879661 46.069053 
L 211.129456 45.17495 
L 214.379252 44.506442 
L 217.629047 44.06419 
L 220.878842 43.848631 
L 224.128637 43.859978 
L 227.378433 44.09822 
L 230.628228 44.563121 
L 233.878023 45.254222 
L 237.127818 46.170839 
L 240.377614 47.312066 
L 243.627409 48.676774 
L 247.202184 50.434457 
L 250.776958 52.458812 
L 254.351733 54.747417 
L 257.926508 57.297533 
L 261.501283 60.106109 
L 265.401037 63.460826 
L 269.300791 67.11435 
L 273.200546 71.06148 
L 277.425279 75.662333 
L 281.650013 80.593473 
L 286.199727 86.263842 
L 290.74944 92.296711 
L 295.624133 99.149466 
L 300.498826 106.38968 
L 305.698498 114.521476 
L 311.22315 123.60141 
L 316.747802 133.109118 
L 322.597433 143.612153 
L 328.772044 155.148725 
L 335.596614 168.388592 
L 342.746164 182.74854 
L 350.870652 199.588744 
L 359.970079 218.985419 
L 371.019383 243.089729 
L 384.668523 273.312 
L 384.668523 273.312 
" clip-path="url(#p69f770a608)" style="fill: none; stroke: #ff7f0e; stroke-width: 1.5; stroke-linecap: square"/>
   </g>
   <g id="patch_203">
    <path d="M 43.78125 273.312 
L 43.78125 7.2 
" style="fill: none; stroke: #000000; stroke-width: 0.8; stroke-linejoin: miter; stroke-linecap: square"/>
   </g>
   <g id="patch_204">
    <path d="M 400.90125 273.312 
L 400.90125 7.2 
" style="fill: none; stroke: #000000; stroke-width: 0.8; stroke-linejoin: miter; stroke-linecap: square"/>
   </g>
   <g id="patch_205">
    <path d="M 43.78125 273.312 
L 400.90125 273.312 
" style="fill: none; stroke: #000000; stroke-width: 0.8; stroke-linejoin: miter; stroke-linecap: square"/>
   </g>
   <g id="patch_206">
    <path d="M 43.78125 7.2 
L 400.90125 7.2 
" style="fill: none; stroke: #000000; stroke-width: 0.8; stroke-linejoin: miter; stroke-linecap: square"/>
   </g>
  </g>
 </g>
 <defs>
  <clipPath id="p69f770a608">
   <rect x="43.78125" y="7.2" width="357.12" height="266.112"/>
  </clipPath>
 </defs>
</svg>
