<?xml version="1.0" encoding="utf-8" standalone="no"?>
<!DOCTYPE svg PUBLIC "-//W3C//DTD SVG 1.1//EN"
  "http://www.w3.org/Graphics/SVG/1.1/DTD/svg11.dtd">
<svg xmlns:xlink="http://www.w3.org/1999/xlink" width="408.10125pt" height="310.86825pt" viewBox="0 0 408.10125 310.86825" xmlns="http://www.w3.org/2000/svg" version="1.1">
 <metadata>
  <rdf:RDF xmlns:dc="http://purl.org/dc/elements/1.1/" xmlns:cc="http://creativecommons.org/ns#" xmlns:rdf="http://www.w3.org/1999/02/22-rdf-syntax-ns#">
   <cc:Work>
    <dc:type rdf:resource="http://purl.org/dc/dcmitype/StillImage"/>
    <dc:date>2022-03-14T15:19:38.623927</dc:date>
    <dc:format>image/svg+xml</dc:format>
    <dc:creator>
     <cc:Agent>
      <dc:title>Matplotlib v3.5.1, https://matplotlib.org/</dc:title>
     </cc:Agent>
    </dc:creator>
   </cc:Work>
  </rdf:RDF>
 </metadata>
 <defs>
  <style type="text/css">*{stroke-linejoin: round; stroke-linecap: butt}</style>
 </defs>
 <g id="figure_1">
  <g id="patch_1">
   <path d="M 0 310.86825 
L 408.10125 310.86825 
L 408.10125 0 
L 0 0 
z
" style="fill: #ffffff"/>
  </g>
  <g id="axes_1">
   <g id="patch_2">
    <path d="M 43.78125 273.312 
L 400.90125 273.312 
L 400.90125 7.2 
L 43.78125 7.2 
z
" style="fill: #ffffff"/>
   </g>
   <g id="patch_3">
    <path d="M 61.701052 273.312 
L 63.315878 273.312 
L 63.315878 270.445032 
L 61.701052 270.445032 
z
" clip-path="url(#p704165f28f)" style="fill: #1f77b4"/>
   </g>
   <g id="patch_4">
    <path d="M 63.315878 273.312 
L 64.930705 273.312 
L 64.930705 269.871638 
L 63.315878 269.871638 
z
" clip-path="url(#p704165f28f)" style="fill: #1f77b4"/>
   </g>
   <g id="patch_5">
    <path d="M 64.930705 273.312 
L 66.545532 273.312 
L 66.545532 267.00467 
L 64.930705 267.00467 
z
" clip-path="url(#p704165f28f)" style="fill: #1f77b4"/>
   </g>
   <g id="patch_6">
    <path d="M 66.545532 273.312 
L 68.160358 273.312 
L 68.160358 268.151457 
L 66.545532 268.151457 
z
" clip-path="url(#p704165f28f)" style="fill: #1f77b4"/>
   </g>
   <g id="patch_7">
    <path d="M 68.160358 273.312 
L 69.775185 273.312 
L 69.775185 262.990914 
L 68.160358 262.990914 
z
" clip-path="url(#p704165f28f)" style="fill: #1f77b4"/>
   </g>
   <g id="patch_8">
    <path d="M 69.775185 273.312 
L 71.390012 273.312 
L 71.390012 268.151457 
L 69.775185 268.151457 
z
" clip-path="url(#p704165f28f)" style="fill: #1f77b4"/>
   </g>
   <g id="patch_9">
    <path d="M 71.390012 273.312 
L 73.004838 273.312 
L 73.004838 266.431276 
L 71.390012 266.431276 
z
" clip-path="url(#p704165f28f)" style="fill: #1f77b4"/>
   </g>
   <g id="patch_10">
    <path d="M 73.004838 273.312 
L 74.619665 273.312 
L 74.619665 262.990914 
L 73.004838 262.990914 
z
" clip-path="url(#p704165f28f)" style="fill: #1f77b4"/>
   </g>
   <g id="patch_11">
    <path d="M 74.619665 273.312 
L 76.234491 273.312 
L 76.234491 261.844127 
L 74.619665 261.844127 
z
" clip-path="url(#p704165f28f)" style="fill: #1f77b4"/>
   </g>
   <g id="patch_12">
    <path d="M 76.234491 273.312 
L 77.849318 273.312 
L 77.849318 261.270733 
L 76.234491 261.270733 
z
" clip-path="url(#p704165f28f)" style="fill: #1f77b4"/>
   </g>
   <g id="patch_13">
    <path d="M 77.849318 273.312 
L 79.464145 273.312 
L 79.464145 261.844127 
L 77.849318 261.844127 
z
" clip-path="url(#p704165f28f)" style="fill: #1f77b4"/>
   </g>
   <g id="patch_14">
    <path d="M 79.464145 273.312 
L 81.078971 273.312 
L 81.078971 257.830371 
L 79.464145 257.830371 
z
" clip-path="url(#p704165f28f)" style="fill: #1f77b4"/>
   </g>
   <g id="patch_15">
    <path d="M 81.078971 273.312 
L 82.693798 273.312 
L 82.693798 261.270733 
L 81.078971 261.270733 
z
" clip-path="url(#p704165f28f)" style="fill: #1f77b4"/>
   </g>
   <g id="patch_16">
    <path d="M 82.693798 273.312 
L 84.308624 273.312 
L 84.308624 251.523041 
L 82.693798 251.523041 
z
" clip-path="url(#p704165f28f)" style="fill: #1f77b4"/>
   </g>
   <g id="patch_17">
    <path d="M 84.308624 273.312 
L 85.923451 273.312 
L 85.923451 251.523041 
L 84.308624 251.523041 
z
" clip-path="url(#p704165f28f)" style="fill: #1f77b4"/>
   </g>
   <g id="patch_18">
    <path d="M 85.923451 273.312 
L 87.538278 273.312 
L 87.538278 253.816615 
L 85.923451 253.816615 
z
" clip-path="url(#p704165f28f)" style="fill: #1f77b4"/>
   </g>
   <g id="patch_19">
    <path d="M 87.538278 273.312 
L 89.153104 273.312 
L 89.153104 255.536796 
L 87.538278 255.536796 
z
" clip-path="url(#p704165f28f)" style="fill: #1f77b4"/>
   </g>
   <g id="patch_20">
    <path d="M 89.153104 273.312 
L 90.767931 273.312 
L 90.767931 255.536796 
L 89.153104 255.536796 
z
" clip-path="url(#p704165f28f)" style="fill: #1f77b4"/>
   </g>
   <g id="patch_21">
    <path d="M 90.767931 273.312 
L 92.382758 273.312 
L 92.382758 254.390009 
L 90.767931 254.390009 
z
" clip-path="url(#p704165f28f)" style="fill: #1f77b4"/>
   </g>
   <g id="patch_22">
    <path d="M 92.382758 273.312 
L 93.997584 273.312 
L 93.997584 249.229466 
L 92.382758 249.229466 
z
" clip-path="url(#p704165f28f)" style="fill: #1f77b4"/>
   </g>
   <g id="patch_23">
    <path d="M 93.997584 273.312 
L 95.612411 273.312 
L 95.612411 244.068923 
L 93.997584 244.068923 
z
" clip-path="url(#p704165f28f)" style="fill: #1f77b4"/>
   </g>
   <g id="patch_24">
    <path d="M 95.612411 273.312 
L 97.227237 273.312 
L 97.227237 242.922136 
L 95.612411 242.922136 
z
" clip-path="url(#p704165f28f)" style="fill: #1f77b4"/>
   </g>
   <g id="patch_25">
    <path d="M 97.227237 273.312 
L 98.842064 273.312 
L 98.842064 248.082679 
L 97.227237 248.082679 
z
" clip-path="url(#p704165f28f)" style="fill: #1f77b4"/>
   </g>
   <g id="patch_26">
    <path d="M 98.842064 273.312 
L 100.456891 273.312 
L 100.456891 245.21571 
L 98.842064 245.21571 
z
" clip-path="url(#p704165f28f)" style="fill: #1f77b4"/>
   </g>
   <g id="patch_27">
    <path d="M 100.456891 273.312 
L 102.071717 273.312 
L 102.071717 244.642317 
L 100.456891 244.642317 
z
" clip-path="url(#p704165f28f)" style="fill: #1f77b4"/>
   </g>
   <g id="patch_28">
    <path d="M 102.071717 273.312 
L 103.686544 273.312 
L 103.686544 234.321231 
L 102.071717 234.321231 
z
" clip-path="url(#p704165f28f)" style="fill: #1f77b4"/>
   </g>
   <g id="patch_29">
    <path d="M 103.686544 273.312 
L 105.301371 273.312 
L 105.301371 237.761593 
L 103.686544 237.761593 
z
" clip-path="url(#p704165f28f)" style="fill: #1f77b4"/>
   </g>
   <g id="patch_30">
    <path d="M 105.301371 273.312 
L 106.916197 273.312 
L 106.916197 245.789104 
L 105.301371 245.789104 
z
" clip-path="url(#p704165f28f)" style="fill: #1f77b4"/>
   </g>
   <g id="patch_31">
    <path d="M 106.916197 273.312 
L 108.531024 273.312 
L 108.531024 238.334986 
L 106.916197 238.334986 
z
" clip-path="url(#p704165f28f)" style="fill: #1f77b4"/>
   </g>
   <g id="patch_32">
    <path d="M 108.531024 273.312 
L 110.14585 273.312 
L 110.14585 236.041412 
L 108.531024 236.041412 
z
" clip-path="url(#p704165f28f)" style="fill: #1f77b4"/>
   </g>
   <g id="patch_33">
    <path d="M 110.14585 273.312 
L 111.760677 273.312 
L 111.760677 245.21571 
L 110.14585 245.21571 
z
" clip-path="url(#p704165f28f)" style="fill: #1f77b4"/>
   </g>
   <g id="patch_34">
    <path d="M 111.760677 273.312 
L 113.375504 273.312 
L 113.375504 238.334986 
L 111.760677 238.334986 
z
" clip-path="url(#p704165f28f)" style="fill: #1f77b4"/>
   </g>
   <g id="patch_35">
    <path d="M 113.375504 273.312 
L 114.99033 273.312 
L 114.99033 237.188199 
L 113.375504 237.188199 
z
" clip-path="url(#p704165f28f)" style="fill: #1f77b4"/>
   </g>
   <g id="patch_36">
    <path d="M 114.99033 273.312 
L 116.605157 273.312 
L 116.605157 242.922136 
L 114.99033 242.922136 
z
" clip-path="url(#p704165f28f)" style="fill: #1f77b4"/>
   </g>
   <g id="patch_37">
    <path d="M 116.605157 273.312 
L 118.219984 273.312 
L 118.219984 225.720326 
L 116.605157 225.720326 
z
" clip-path="url(#p704165f28f)" style="fill: #1f77b4"/>
   </g>
   <g id="patch_38">
    <path d="M 118.219984 273.312 
L 119.83481 273.312 
L 119.83481 233.747837 
L 118.219984 233.747837 
z
" clip-path="url(#p704165f28f)" style="fill: #1f77b4"/>
   </g>
   <g id="patch_39">
    <path d="M 119.83481 273.312 
L 121.449637 273.312 
L 121.449637 232.027656 
L 119.83481 232.027656 
z
" clip-path="url(#p704165f28f)" style="fill: #1f77b4"/>
   </g>
   <g id="patch_40">
    <path d="M 121.449637 273.312 
L 123.064463 273.312 
L 123.064463 221.70657 
L 121.449637 221.70657 
z
" clip-path="url(#p704165f28f)" style="fill: #1f77b4"/>
   </g>
   <g id="patch_41">
    <path d="M 123.064463 273.312 
L 124.67929 273.312 
L 124.67929 229.160688 
L 123.064463 229.160688 
z
" clip-path="url(#p704165f28f)" style="fill: #1f77b4"/>
   </g>
   <g id="patch_42">
    <path d="M 124.67929 273.312 
L 126.294117 273.312 
L 126.294117 229.734081 
L 124.67929 229.734081 
z
" clip-path="url(#p704165f28f)" style="fill: #1f77b4"/>
   </g>
   <g id="patch_43">
    <path d="M 126.294117 273.312 
L 127.908943 273.312 
L 127.908943 222.279964 
L 126.294117 222.279964 
z
" clip-path="url(#p704165f28f)" style="fill: #1f77b4"/>
   </g>
   <g id="patch_44">
    <path d="M 127.908943 273.312 
L 129.52377 273.312 
L 129.52377 236.614805 
L 127.908943 236.614805 
z
" clip-path="url(#p704165f28f)" style="fill: #1f77b4"/>
   </g>
   <g id="patch_45">
    <path d="M 129.52377 273.312 
L 131.138597 273.312 
L 131.138597 235.468018 
L 129.52377 235.468018 
z
" clip-path="url(#p704165f28f)" style="fill: #1f77b4"/>
   </g>
   <g id="patch_46">
    <path d="M 131.138597 273.312 
L 132.753423 273.312 
L 132.753423 221.133176 
L 131.138597 221.133176 
z
" clip-path="url(#p704165f28f)" style="fill: #1f77b4"/>
   </g>
   <g id="patch_47">
    <path d="M 132.753423 273.312 
L 134.36825 273.312 
L 134.36825 209.665303 
L 132.753423 209.665303 
z
" clip-path="url(#p704165f28f)" style="fill: #1f77b4"/>
   </g>
   <g id="patch_48">
    <path d="M 134.36825 273.312 
L 135.983076 273.312 
L 135.983076 216.546027 
L 134.36825 216.546027 
z
" clip-path="url(#p704165f28f)" style="fill: #1f77b4"/>
   </g>
   <g id="patch_49">
    <path d="M 135.983076 273.312 
L 137.597903 273.312 
L 137.597903 222.279964 
L 135.983076 222.279964 
z
" clip-path="url(#p704165f28f)" style="fill: #1f77b4"/>
   </g>
   <g id="patch_50">
    <path d="M 137.597903 273.312 
L 139.21273 273.312 
L 139.21273 219.412995 
L 137.597903 219.412995 
z
" clip-path="url(#p704165f28f)" style="fill: #1f77b4"/>
   </g>
   <g id="patch_51">
    <path d="M 139.21273 273.312 
L 140.827556 273.312 
L 140.827556 213.105665 
L 139.21273 213.105665 
z
" clip-path="url(#p704165f28f)" style="fill: #1f77b4"/>
   </g>
   <g id="patch_52">
    <path d="M 140.827556 273.312 
L 142.442383 273.312 
L 142.442383 222.279964 
L 140.827556 222.279964 
z
" clip-path="url(#p704165f28f)" style="fill: #1f77b4"/>
   </g>
   <g id="patch_53">
    <path d="M 142.442383 273.312 
L 144.057209 273.312 
L 144.057209 207.371729 
L 142.442383 207.371729 
z
" clip-path="url(#p704165f28f)" style="fill: #1f77b4"/>
   </g>
   <g id="patch_54">
    <path d="M 144.057209 273.312 
L 145.672036 273.312 
L 145.672036 213.679059 
L 144.057209 213.679059 
z
" clip-path="url(#p704165f28f)" style="fill: #1f77b4"/>
   </g>
   <g id="patch_55">
    <path d="M 145.672036 273.312 
L 147.286863 273.312 
L 147.286863 212.532271 
L 145.672036 212.532271 
z
" clip-path="url(#p704165f28f)" style="fill: #1f77b4"/>
   </g>
   <g id="patch_56">
    <path d="M 147.286863 273.312 
L 148.901689 273.312 
L 148.901689 210.238697 
L 147.286863 210.238697 
z
" clip-path="url(#p704165f28f)" style="fill: #1f77b4"/>
   </g>
   <g id="patch_57">
    <path d="M 148.901689 273.312 
L 150.516516 273.312 
L 150.516516 218.266208 
L 148.901689 218.266208 
z
" clip-path="url(#p704165f28f)" style="fill: #1f77b4"/>
   </g>
   <g id="patch_58">
    <path d="M 150.516516 273.312 
L 152.131343 273.312 
L 152.131343 199.917611 
L 150.516516 199.917611 
z
" clip-path="url(#p704165f28f)" style="fill: #1f77b4"/>
   </g>
   <g id="patch_59">
    <path d="M 152.131343 273.312 
L 153.746169 273.312 
L 153.746169 207.371729 
L 152.131343 207.371729 
z
" clip-path="url(#p704165f28f)" style="fill: #1f77b4"/>
   </g>
   <g id="patch_60">
    <path d="M 153.746169 273.312 
L 155.360996 273.312 
L 155.360996 207.371729 
L 153.746169 207.371729 
z
" clip-path="url(#p704165f28f)" style="fill: #1f77b4"/>
   </g>
   <g id="patch_61">
    <path d="M 155.360996 273.312 
L 156.975822 273.312 
L 156.975822 197.050643 
L 155.360996 197.050643 
z
" clip-path="url(#p704165f28f)" style="fill: #1f77b4"/>
   </g>
   <g id="patch_62">
    <path d="M 156.975822 273.312 
L 158.590649 273.312 
L 158.590649 193.610281 
L 156.975822 193.610281 
z
" clip-path="url(#p704165f28f)" style="fill: #1f77b4"/>
   </g>
   <g id="patch_63">
    <path d="M 158.590649 273.312 
L 160.205476 273.312 
L 160.205476 202.784579 
L 158.590649 202.784579 
z
" clip-path="url(#p704165f28f)" style="fill: #1f77b4"/>
   </g>
   <g id="patch_64">
    <path d="M 160.205476 273.312 
L 161.820302 273.312 
L 161.820302 205.651548 
L 160.205476 205.651548 
z
" clip-path="url(#p704165f28f)" style="fill: #1f77b4"/>
   </g>
   <g id="patch_65">
    <path d="M 161.820302 273.312 
L 163.435129 273.312 
L 163.435129 193.610281 
L 161.820302 193.610281 
z
" clip-path="url(#p704165f28f)" style="fill: #1f77b4"/>
   </g>
   <g id="patch_66">
    <path d="M 163.435129 273.312 
L 165.049956 273.312 
L 165.049956 197.050643 
L 163.435129 197.050643 
z
" clip-path="url(#p704165f28f)" style="fill: #1f77b4"/>
   </g>
   <g id="patch_67">
    <path d="M 165.049956 273.312 
L 166.664782 273.312 
L 166.664782 193.036887 
L 165.049956 193.036887 
z
" clip-path="url(#p704165f28f)" style="fill: #1f77b4"/>
   </g>
   <g id="patch_68">
    <path d="M 166.664782 273.312 
L 168.279609 273.312 
L 168.279609 196.477249 
L 166.664782 196.477249 
z
" clip-path="url(#p704165f28f)" style="fill: #1f77b4"/>
   </g>
   <g id="patch_69">
    <path d="M 168.279609 273.312 
L 169.894435 273.312 
L 169.894435 200.491005 
L 168.279609 200.491005 
z
" clip-path="url(#p704165f28f)" style="fill: #1f77b4"/>
   </g>
   <g id="patch_70">
    <path d="M 169.894435 273.312 
L 171.509262 273.312 
L 171.509262 194.183674 
L 169.894435 194.183674 
z
" clip-path="url(#p704165f28f)" style="fill: #1f77b4"/>
   </g>
   <g id="patch_71">
    <path d="M 171.509262 273.312 
L 173.124089 273.312 
L 173.124089 194.183674 
L 171.509262 194.183674 
z
" clip-path="url(#p704165f28f)" style="fill: #1f77b4"/>
   </g>
   <g id="patch_72">
    <path d="M 173.124089 273.312 
L 174.738915 273.312 
L 174.738915 191.316706 
L 173.124089 191.316706 
z
" clip-path="url(#p704165f28f)" style="fill: #1f77b4"/>
   </g>
   <g id="patch_73">
    <path d="M 174.738915 273.312 
L 176.353742 273.312 
L 176.353742 191.8901 
L 174.738915 191.8901 
z
" clip-path="url(#p704165f28f)" style="fill: #1f77b4"/>
   </g>
   <g id="patch_74">
    <path d="M 176.353742 273.312 
L 177.968569 273.312 
L 177.968569 180.99562 
L 176.353742 180.99562 
z
" clip-path="url(#p704165f28f)" style="fill: #1f77b4"/>
   </g>
   <g id="patch_75">
    <path d="M 177.968569 273.312 
L 179.583395 273.312 
L 179.583395 185.009376 
L 177.968569 185.009376 
z
" clip-path="url(#p704165f28f)" style="fill: #1f77b4"/>
   </g>
   <g id="patch_76">
    <path d="M 179.583395 273.312 
L 181.198222 273.312 
L 181.198222 197.624036 
L 179.583395 197.624036 
z
" clip-path="url(#p704165f28f)" style="fill: #1f77b4"/>
   </g>
   <g id="patch_77">
    <path d="M 181.198222 273.312 
L 182.813048 273.312 
L 182.813048 198.19743 
L 181.198222 198.19743 
z
" clip-path="url(#p704165f28f)" style="fill: #1f77b4"/>
   </g>
   <g id="patch_78">
    <path d="M 182.813048 273.312 
L 184.427875 273.312 
L 184.427875 185.009376 
L 182.813048 185.009376 
z
" clip-path="url(#p704165f28f)" style="fill: #1f77b4"/>
   </g>
   <g id="patch_79">
    <path d="M 184.427875 273.312 
L 186.042702 273.312 
L 186.042702 198.19743 
L 184.427875 198.19743 
z
" clip-path="url(#p704165f28f)" style="fill: #1f77b4"/>
   </g>
   <g id="patch_80">
    <path d="M 186.042702 273.312 
L 187.657528 273.312 
L 187.657528 182.142407 
L 186.042702 182.142407 
z
" clip-path="url(#p704165f28f)" style="fill: #1f77b4"/>
   </g>
   <g id="patch_81">
    <path d="M 187.657528 273.312 
L 189.272355 273.312 
L 189.272355 172.968109 
L 187.657528 172.968109 
z
" clip-path="url(#p704165f28f)" style="fill: #1f77b4"/>
   </g>
   <g id="patch_82">
    <path d="M 189.272355 273.312 
L 190.887181 273.312 
L 190.887181 170.10114 
L 189.272355 170.10114 
z
" clip-path="url(#p704165f28f)" style="fill: #1f77b4"/>
   </g>
   <g id="patch_83">
    <path d="M 190.887181 273.312 
L 192.502008 273.312 
L 192.502008 185.582769 
L 190.887181 185.582769 
z
" clip-path="url(#p704165f28f)" style="fill: #1f77b4"/>
   </g>
   <g id="patch_84">
    <path d="M 192.502008 273.312 
L 194.116835 273.312 
L 194.116835 184.435982 
L 192.502008 184.435982 
z
" clip-path="url(#p704165f28f)" style="fill: #1f77b4"/>
   </g>
   <g id="patch_85">
    <path d="M 194.116835 273.312 
L 195.731661 273.312 
L 195.731661 183.289195 
L 194.116835 183.289195 
z
" clip-path="url(#p704165f28f)" style="fill: #1f77b4"/>
   </g>
   <g id="patch_86">
    <path d="M 195.731661 273.312 
L 197.346488 273.312 
L 197.346488 178.702045 
L 195.731661 178.702045 
z
" clip-path="url(#p704165f28f)" style="fill: #1f77b4"/>
   </g>
   <g id="patch_87">
    <path d="M 197.346488 273.312 
L 198.961315 273.312 
L 198.961315 181.569014 
L 197.346488 181.569014 
z
" clip-path="url(#p704165f28f)" style="fill: #1f77b4"/>
   </g>
   <g id="patch_88">
    <path d="M 198.961315 273.312 
L 200.576141 273.312 
L 200.576141 182.715801 
L 198.961315 182.715801 
z
" clip-path="url(#p704165f28f)" style="fill: #1f77b4"/>
   </g>
   <g id="patch_89">
    <path d="M 200.576141 273.312 
L 202.190968 273.312 
L 202.190968 170.674534 
L 200.576141 170.674534 
z
" clip-path="url(#p704165f28f)" style="fill: #1f77b4"/>
   </g>
   <g id="patch_90">
    <path d="M 202.190968 273.312 
L 203.805794 273.312 
L 203.805794 146.018606 
L 202.190968 146.018606 
z
" clip-path="url(#p704165f28f)" style="fill: #1f77b4"/>
   </g>
   <g id="patch_91">
    <path d="M 203.805794 273.312 
L 205.420621 273.312 
L 205.420621 157.48648 
L 203.805794 157.48648 
z
" clip-path="url(#p704165f28f)" style="fill: #1f77b4"/>
   </g>
   <g id="patch_92">
    <path d="M 205.420621 273.312 
L 207.035448 273.312 
L 207.035448 179.848833 
L 205.420621 179.848833 
z
" clip-path="url(#p704165f28f)" style="fill: #1f77b4"/>
   </g>
   <g id="patch_93">
    <path d="M 207.035448 273.312 
L 208.650274 273.312 
L 208.650274 173.541502 
L 207.035448 173.541502 
z
" clip-path="url(#p704165f28f)" style="fill: #1f77b4"/>
   </g>
   <g id="patch_94">
    <path d="M 208.650274 273.312 
L 210.265101 273.312 
L 210.265101 170.10114 
L 208.650274 170.10114 
z
" clip-path="url(#p704165f28f)" style="fill: #1f77b4"/>
   </g>
   <g id="patch_95">
    <path d="M 210.265101 273.312 
L 211.879928 273.312 
L 211.879928 166.660778 
L 210.265101 166.660778 
z
" clip-path="url(#p704165f28f)" style="fill: #1f77b4"/>
   </g>
   <g id="patch_96">
    <path d="M 211.879928 273.312 
L 213.494754 273.312 
L 213.494754 163.79381 
L 211.879928 163.79381 
z
" clip-path="url(#p704165f28f)" style="fill: #1f77b4"/>
   </g>
   <g id="patch_97">
    <path d="M 213.494754 273.312 
L 215.109581 273.312 
L 215.109581 170.674534 
L 213.494754 170.674534 
z
" clip-path="url(#p704165f28f)" style="fill: #1f77b4"/>
   </g>
   <g id="patch_98">
    <path d="M 215.109581 273.312 
L 216.724407 273.312 
L 216.724407 159.206661 
L 215.109581 159.206661 
z
" clip-path="url(#p704165f28f)" style="fill: #1f77b4"/>
   </g>
   <g id="patch_99">
    <path d="M 216.724407 273.312 
L 218.339234 273.312 
L 218.339234 160.353448 
L 216.724407 160.353448 
z
" clip-path="url(#p704165f28f)" style="fill: #1f77b4"/>
   </g>
   <g id="patch_100">
    <path d="M 218.339234 273.312 
L 219.954061 273.312 
L 219.954061 162.647023 
L 218.339234 162.647023 
z
" clip-path="url(#p704165f28f)" style="fill: #1f77b4"/>
   </g>
   <g id="patch_101">
    <path d="M 219.954061 273.312 
L 221.568887 273.312 
L 221.568887 158.633267 
L 219.954061 158.633267 
z
" clip-path="url(#p704165f28f)" style="fill: #1f77b4"/>
   </g>
   <g id="patch_102">
    <path d="M 221.568887 273.312 
L 223.183714 273.312 
L 223.183714 159.206661 
L 221.568887 159.206661 
z
" clip-path="url(#p704165f28f)" style="fill: #1f77b4"/>
   </g>
   <g id="patch_103">
    <path d="M 223.183714 273.312 
L 224.798541 273.312 
L 224.798541 159.780054 
L 223.183714 159.780054 
z
" clip-path="url(#p704165f28f)" style="fill: #1f77b4"/>
   </g>
   <g id="patch_104">
    <path d="M 224.798541 273.312 
L 226.413367 273.312 
L 226.413367 147.165394 
L 224.798541 147.165394 
z
" clip-path="url(#p704165f28f)" style="fill: #1f77b4"/>
   </g>
   <g id="patch_105">
    <path d="M 226.413367 273.312 
L 228.028194 273.312 
L 228.028194 170.674534 
L 226.413367 170.674534 
z
" clip-path="url(#p704165f28f)" style="fill: #1f77b4"/>
   </g>
   <g id="patch_106">
    <path d="M 228.028194 273.312 
L 229.64302 273.312 
L 229.64302 167.234172 
L 228.028194 167.234172 
z
" clip-path="url(#p704165f28f)" style="fill: #1f77b4"/>
   </g>
   <g id="patch_107">
    <path d="M 229.64302 273.312 
L 231.257847 273.312 
L 231.257847 154.046118 
L 229.64302 154.046118 
z
" clip-path="url(#p704165f28f)" style="fill: #1f77b4"/>
   </g>
   <g id="patch_108">
    <path d="M 231.257847 273.312 
L 232.872674 273.312 
L 232.872674 147.165394 
L 231.257847 147.165394 
z
" clip-path="url(#p704165f28f)" style="fill: #1f77b4"/>
   </g>
   <g id="patch_109">
    <path d="M 232.872674 273.312 
L 234.4875 273.312 
L 234.4875 150.605756 
L 232.872674 150.605756 
z
" clip-path="url(#p704165f28f)" style="fill: #1f77b4"/>
   </g>
   <g id="patch_110">
    <path d="M 234.4875 273.312 
L 236.102327 273.312 
L 236.102327 154.619511 
L 234.4875 154.619511 
z
" clip-path="url(#p704165f28f)" style="fill: #1f77b4"/>
   </g>
   <g id="patch_111">
    <path d="M 236.102327 273.312 
L 237.717153 273.312 
L 237.717153 146.018606 
L 236.102327 146.018606 
z
" clip-path="url(#p704165f28f)" style="fill: #1f77b4"/>
   </g>
   <g id="patch_112">
    <path d="M 237.717153 273.312 
L 239.33198 273.312 
L 239.33198 155.192905 
L 237.717153 155.192905 
z
" clip-path="url(#p704165f28f)" style="fill: #1f77b4"/>
   </g>
   <g id="patch_113">
    <path d="M 239.33198 273.312 
L 240.946807 273.312 
L 240.946807 142.578244 
L 239.33198 142.578244 
z
" clip-path="url(#p704165f28f)" style="fill: #1f77b4"/>
   </g>
   <g id="patch_114">
    <path d="M 240.946807 273.312 
L 242.561633 273.312 
L 242.561633 128.816796 
L 240.946807 128.816796 
z
" clip-path="url(#p704165f28f)" style="fill: #1f77b4"/>
   </g>
   <g id="patch_115">
    <path d="M 242.561633 273.312 
L 244.17646 273.312 
L 244.17646 149.458968 
L 242.561633 149.458968 
z
" clip-path="url(#p704165f28f)" style="fill: #1f77b4"/>
   </g>
   <g id="patch_116">
    <path d="M 244.17646 273.312 
L 245.791287 273.312 
L 245.791287 155.766299 
L 244.17646 155.766299 
z
" clip-path="url(#p704165f28f)" style="fill: #1f77b4"/>
   </g>
   <g id="patch_117">
    <path d="M 245.791287 273.312 
L 247.406113 273.312 
L 247.406113 134.550733 
L 245.791287 134.550733 
z
" clip-path="url(#p704165f28f)" style="fill: #1f77b4"/>
   </g>
   <g id="patch_118">
    <path d="M 247.406113 273.312 
L 249.02094 273.312 
L 249.02094 145.445213 
L 247.406113 145.445213 
z
" clip-path="url(#p704165f28f)" style="fill: #1f77b4"/>
   </g>
   <g id="patch_119">
    <path d="M 249.02094 273.312 
L 250.635766 273.312 
L 250.635766 137.417701 
L 249.02094 137.417701 
z
" clip-path="url(#p704165f28f)" style="fill: #1f77b4"/>
   </g>
   <g id="patch_120">
    <path d="M 250.635766 273.312 
L 252.250593 273.312 
L 252.250593 137.417701 
L 250.635766 137.417701 
z
" clip-path="url(#p704165f28f)" style="fill: #1f77b4"/>
   </g>
   <g id="patch_121">
    <path d="M 252.250593 273.312 
L 253.86542 273.312 
L 253.86542 143.151638 
L 252.250593 143.151638 
z
" clip-path="url(#p704165f28f)" style="fill: #1f77b4"/>
   </g>
   <g id="patch_122">
    <path d="M 253.86542 273.312 
L 255.480246 273.312 
L 255.480246 133.403946 
L 253.86542 133.403946 
z
" clip-path="url(#p704165f28f)" style="fill: #1f77b4"/>
   </g>
   <g id="patch_123">
    <path d="M 255.480246 273.312 
L 257.095073 273.312 
L 257.095073 120.215891 
L 255.480246 120.215891 
z
" clip-path="url(#p704165f28f)" style="fill: #1f77b4"/>
   </g>
   <g id="patch_124">
    <path d="M 257.095073 273.312 
L 258.7099 273.312 
L 258.7099 137.991095 
L 257.095073 137.991095 
z
" clip-path="url(#p704165f28f)" style="fill: #1f77b4"/>
   </g>
   <g id="patch_125">
    <path d="M 258.7099 273.312 
L 260.324726 273.312 
L 260.324726 122.509466 
L 258.7099 122.509466 
z
" clip-path="url(#p704165f28f)" style="fill: #1f77b4"/>
   </g>
   <g id="patch_126">
    <path d="M 260.324726 273.312 
L 261.939553 273.312 
L 261.939553 129.963584 
L 260.324726 129.963584 
z
" clip-path="url(#p704165f28f)" style="fill: #1f77b4"/>
   </g>
   <g id="patch_127">
    <path d="M 261.939553 273.312 
L 263.554379 273.312 
L 263.554379 140.28467 
L 261.939553 140.28467 
z
" clip-path="url(#p704165f28f)" style="fill: #1f77b4"/>
   </g>
   <g id="patch_128">
    <path d="M 263.554379 273.312 
L 265.169206 273.312 
L 265.169206 131.683765 
L 263.554379 131.683765 
z
" clip-path="url(#p704165f28f)" style="fill: #1f77b4"/>
   </g>
   <g id="patch_129">
    <path d="M 265.169206 273.312 
L 266.784033 273.312 
L 266.784033 124.803041 
L 265.169206 124.803041 
z
" clip-path="url(#p704165f28f)" style="fill: #1f77b4"/>
   </g>
   <g id="patch_130">
    <path d="M 266.784033 273.312 
L 268.398859 273.312 
L 268.398859 124.229647 
L 266.784033 124.229647 
z
" clip-path="url(#p704165f28f)" style="fill: #1f77b4"/>
   </g>
   <g id="patch_131">
    <path d="M 268.398859 273.312 
L 270.013686 273.312 
L 270.013686 118.49571 
L 268.398859 118.49571 
z
" clip-path="url(#p704165f28f)" style="fill: #1f77b4"/>
   </g>
   <g id="patch_132">
    <path d="M 270.013686 273.312 
L 271.628513 273.312 
L 271.628513 139.711276 
L 270.013686 139.711276 
z
" clip-path="url(#p704165f28f)" style="fill: #1f77b4"/>
   </g>
   <g id="patch_133">
    <path d="M 271.628513 273.312 
L 273.243339 273.312 
L 273.243339 116.202136 
L 271.628513 116.202136 
z
" clip-path="url(#p704165f28f)" style="fill: #1f77b4"/>
   </g>
   <g id="patch_134">
    <path d="M 273.243339 273.312 
L 274.858166 273.312 
L 274.858166 115.628742 
L 273.243339 115.628742 
z
" clip-path="url(#p704165f28f)" style="fill: #1f77b4"/>
   </g>
   <g id="patch_135">
    <path d="M 274.858166 273.312 
L 276.472992 273.312 
L 276.472992 112.18838 
L 274.858166 112.18838 
z
" clip-path="url(#p704165f28f)" style="fill: #1f77b4"/>
   </g>
   <g id="patch_136">
    <path d="M 276.472992 273.312 
L 278.087819 273.312 
L 278.087819 117.922317 
L 276.472992 117.922317 
z
" clip-path="url(#p704165f28f)" style="fill: #1f77b4"/>
   </g>
   <g id="patch_137">
    <path d="M 278.087819 273.312 
L 279.702646 273.312 
L 279.702646 126.523222 
L 278.087819 126.523222 
z
" clip-path="url(#p704165f28f)" style="fill: #1f77b4"/>
   </g>
   <g id="patch_138">
    <path d="M 279.702646 273.312 
L 281.317472 273.312 
L 281.317472 129.963584 
L 279.702646 129.963584 
z
" clip-path="url(#p704165f28f)" style="fill: #1f77b4"/>
   </g>
   <g id="patch_139">
    <path d="M 281.317472 273.312 
L 282.932299 273.312 
L 282.932299 132.830552 
L 281.317472 132.830552 
z
" clip-path="url(#p704165f28f)" style="fill: #1f77b4"/>
   </g>
   <g id="patch_140">
    <path d="M 282.932299 273.312 
L 284.547125 273.312 
L 284.547125 108.748018 
L 282.932299 108.748018 
z
" clip-path="url(#p704165f28f)" style="fill: #1f77b4"/>
   </g>
   <g id="patch_141">
    <path d="M 284.547125 273.312 
L 286.161952 273.312 
L 286.161952 108.174624 
L 284.547125 108.174624 
z
" clip-path="url(#p704165f28f)" style="fill: #1f77b4"/>
   </g>
   <g id="patch_142">
    <path d="M 286.161952 273.312 
L 287.776779 273.312 
L 287.776779 111.041593 
L 286.161952 111.041593 
z
" clip-path="url(#p704165f28f)" style="fill: #1f77b4"/>
   </g>
   <g id="patch_143">
    <path d="M 287.776779 273.312 
L 289.391605 273.312 
L 289.391605 119.642498 
L 287.776779 119.642498 
z
" clip-path="url(#p704165f28f)" style="fill: #1f77b4"/>
   </g>
   <g id="patch_144">
    <path d="M 289.391605 273.312 
L 291.006432 273.312 
L 291.006432 112.761774 
L 289.391605 112.761774 
z
" clip-path="url(#p704165f28f)" style="fill: #1f77b4"/>
   </g>
   <g id="patch_145">
    <path d="M 291.006432 273.312 
L 292.621259 273.312 
L 292.621259 129.39019 
L 291.006432 129.39019 
z
" clip-path="url(#p704165f28f)" style="fill: #1f77b4"/>
   </g>
   <g id="patch_146">
    <path d="M 292.621259 273.312 
L 294.236085 273.312 
L 294.236085 120.215891 
L 292.621259 120.215891 
z
" clip-path="url(#p704165f28f)" style="fill: #1f77b4"/>
   </g>
   <g id="patch_147">
    <path d="M 294.236085 273.312 
L 295.850912 273.312 
L 295.850912 113.908561 
L 294.236085 113.908561 
z
" clip-path="url(#p704165f28f)" style="fill: #1f77b4"/>
   </g>
   <g id="patch_148">
    <path d="M 295.850912 273.312 
L 297.465738 273.312 
L 297.465738 112.761774 
L 295.850912 112.761774 
z
" clip-path="url(#p704165f28f)" style="fill: #1f77b4"/>
   </g>
   <g id="patch_149">
    <path d="M 297.465738 273.312 
L 299.080565 273.312 
L 299.080565 128.243403 
L 297.465738 128.243403 
z
" clip-path="url(#p704165f28f)" style="fill: #1f77b4"/>
   </g>
   <g id="patch_150">
    <path d="M 299.080565 273.312 
L 300.695392 273.312 
L 300.695392 113.335167 
L 299.080565 113.335167 
z
" clip-path="url(#p704165f28f)" style="fill: #1f77b4"/>
   </g>
   <g id="patch_151">
    <path d="M 300.695392 273.312 
L 302.310218 273.312 
L 302.310218 99.000326 
L 300.695392 99.000326 
z
" clip-path="url(#p704165f28f)" style="fill: #1f77b4"/>
   </g>
   <g id="patch_152">
    <path d="M 302.310218 273.312 
L 303.925045 273.312 
L 303.925045 107.601231 
L 302.310218 107.601231 
z
" clip-path="url(#p704165f28f)" style="fill: #1f77b4"/>
   </g>
   <g id="patch_153">
    <path d="M 303.925045 273.312 
L 305.539872 273.312 
L 305.539872 92.692995 
L 303.925045 92.692995 
z
" clip-path="url(#p704165f28f)" style="fill: #1f77b4"/>
   </g>
   <g id="patch_154">
    <path d="M 305.539872 273.312 
L 307.154698 273.312 
L 307.154698 103.014081 
L 305.539872 103.014081 
z
" clip-path="url(#p704165f28f)" style="fill: #1f77b4"/>
   </g>
   <g id="patch_155">
    <path d="M 307.154698 273.312 
L 308.769525 273.312 
L 308.769525 84.665484 
L 307.154698 84.665484 
z
" clip-path="url(#p704165f28f)" style="fill: #1f77b4"/>
   </g>
   <g id="patch_156">
    <path d="M 308.769525 273.312 
L 310.384351 273.312 
L 310.384351 103.587475 
L 308.769525 103.587475 
z
" clip-path="url(#p704165f28f)" style="fill: #1f77b4"/>
   </g>
   <g id="patch_157">
    <path d="M 310.384351 273.312 
L 311.999178 273.312 
L 311.999178 97.853538 
L 310.384351 97.853538 
z
" clip-path="url(#p704165f28f)" style="fill: #1f77b4"/>
   </g>
   <g id="patch_158">
    <path d="M 311.999178 273.312 
L 313.614005 273.312 
L 313.614005 84.09209 
L 311.999178 84.09209 
z
" clip-path="url(#p704165f28f)" style="fill: #1f77b4"/>
   </g>
   <g id="patch_159">
    <path d="M 313.614005 273.312 
L 315.228831 273.312 
L 315.228831 105.88105 
L 313.614005 105.88105 
z
" clip-path="url(#p704165f28f)" style="fill: #1f77b4"/>
   </g>
   <g id="patch_160">
    <path d="M 315.228831 273.312 
L 316.843658 273.312 
L 316.843658 92.119602 
L 315.228831 92.119602 
z
" clip-path="url(#p704165f28f)" style="fill: #1f77b4"/>
   </g>
   <g id="patch_161">
    <path d="M 316.843658 273.312 
L 318.458485 273.312 
L 318.458485 94.98657 
L 316.843658 94.98657 
z
" clip-path="url(#p704165f28f)" style="fill: #1f77b4"/>
   </g>
   <g id="patch_162">
    <path d="M 318.458485 273.312 
L 320.073311 273.312 
L 320.073311 102.440688 
L 318.458485 102.440688 
z
" clip-path="url(#p704165f28f)" style="fill: #1f77b4"/>
   </g>
   <g id="patch_163">
    <path d="M 320.073311 273.312 
L 321.688138 273.312 
L 321.688138 85.238878 
L 320.073311 85.238878 
z
" clip-path="url(#p704165f28f)" style="fill: #1f77b4"/>
   </g>
   <g id="patch_164">
    <path d="M 321.688138 273.312 
L 323.302964 273.312 
L 323.302964 83.518697 
L 321.688138 83.518697 
z
" clip-path="url(#p704165f28f)" style="fill: #1f77b4"/>
   </g>
   <g id="patch_165">
    <path d="M 323.302964 273.312 
L 324.917791 273.312 
L 324.917791 89.252633 
L 323.302964 89.252633 
z
" clip-path="url(#p704165f28f)" style="fill: #1f77b4"/>
   </g>
   <g id="patch_166">
    <path d="M 324.917791 273.312 
L 326.532618 273.312 
L 326.532618 92.692995 
L 324.917791 92.692995 
z
" clip-path="url(#p704165f28f)" style="fill: #1f77b4"/>
   </g>
   <g id="patch_167">
    <path d="M 326.532618 273.312 
L 328.147444 273.312 
L 328.147444 92.692995 
L 326.532618 92.692995 
z
" clip-path="url(#p704165f28f)" style="fill: #1f77b4"/>
   </g>
   <g id="patch_168">
    <path d="M 328.147444 273.312 
L 329.762271 273.312 
L 329.762271 89.252633 
L 328.147444 89.252633 
z
" clip-path="url(#p704165f28f)" style="fill: #1f77b4"/>
   </g>
   <g id="patch_169">
    <path d="M 329.762271 273.312 
L 331.377097 273.312 
L 331.377097 85.238878 
L 329.762271 85.238878 
z
" clip-path="url(#p704165f28f)" style="fill: #1f77b4"/>
   </g>
   <g id="patch_170">
    <path d="M 331.377097 273.312 
L 332.991924 273.312 
L 332.991924 86.959059 
L 331.377097 86.959059 
z
" clip-path="url(#p704165f28f)" style="fill: #1f77b4"/>
   </g>
   <g id="patch_171">
    <path d="M 332.991924 273.312 
L 334.606751 273.312 
L 334.606751 99.573719 
L 332.991924 99.573719 
z
" clip-path="url(#p704165f28f)" style="fill: #1f77b4"/>
   </g>
   <g id="patch_172">
    <path d="M 334.606751 273.312 
L 336.221577 273.312 
L 336.221577 78.358154 
L 334.606751 78.358154 
z
" clip-path="url(#p704165f28f)" style="fill: #1f77b4"/>
   </g>
   <g id="patch_173">
    <path d="M 336.221577 273.312 
L 337.836404 273.312 
L 337.836404 74.917792 
L 336.221577 74.917792 
z
" clip-path="url(#p704165f28f)" style="fill: #1f77b4"/>
   </g>
   <g id="patch_174">
    <path d="M 337.836404 273.312 
L 339.451231 273.312 
L 339.451231 70.904036 
L 337.836404 70.904036 
z
" clip-path="url(#p704165f28f)" style="fill: #1f77b4"/>
   </g>
   <g id="patch_175">
    <path d="M 339.451231 273.312 
L 341.066057 273.312 
L 341.066057 77.78476 
L 339.451231 77.78476 
z
" clip-path="url(#p704165f28f)" style="fill: #1f77b4"/>
   </g>
   <g id="patch_176">
    <path d="M 341.066057 273.312 
L 342.680884 273.312 
L 342.680884 70.904036 
L 341.066057 70.904036 
z
" clip-path="url(#p704165f28f)" style="fill: #1f77b4"/>
   </g>
   <g id="patch_177">
    <path d="M 342.680884 273.312 
L 344.29571 273.312 
L 344.29571 84.665484 
L 342.680884 84.665484 
z
" clip-path="url(#p704165f28f)" style="fill: #1f77b4"/>
   </g>
   <g id="patch_178">
    <path d="M 344.29571 273.312 
L 345.910537 273.312 
L 345.910537 70.904036 
L 344.29571 70.904036 
z
" clip-path="url(#p704165f28f)" style="fill: #1f77b4"/>
   </g>
   <g id="patch_179">
    <path d="M 345.910537 273.312 
L 347.525364 273.312 
L 347.525364 80.078335 
L 345.910537 80.078335 
z
" clip-path="url(#p704165f28f)" style="fill: #1f77b4"/>
   </g>
   <g id="patch_180">
    <path d="M 347.525364 273.312 
L 349.14019 273.312 
L 349.14019 60.009557 
L 347.525364 60.009557 
z
" clip-path="url(#p704165f28f)" style="fill: #1f77b4"/>
   </g>
   <g id="patch_181">
    <path d="M 349.14019 273.312 
L 350.755017 273.312 
L 350.755017 68.037068 
L 349.14019 68.037068 
z
" clip-path="url(#p704165f28f)" style="fill: #1f77b4"/>
   </g>
   <g id="patch_182">
    <path d="M 350.755017 273.312 
L 352.369844 273.312 
L 352.369844 83.518697 
L 350.755017 83.518697 
z
" clip-path="url(#p704165f28f)" style="fill: #1f77b4"/>
   </g>
   <g id="patch_183">
    <path d="M 352.369844 273.312 
L 353.98467 273.312 
L 353.98467 58.289376 
L 352.369844 58.289376 
z
" clip-path="url(#p704165f28f)" style="fill: #1f77b4"/>
   </g>
   <g id="patch_184">
    <path d="M 353.98467 273.312 
L 355.599497 273.312 
L 355.599497 81.798516 
L 353.98467 81.798516 
z
" clip-path="url(#p704165f28f)" style="fill: #1f77b4"/>
   </g>
   <g id="patch_185">
    <path d="M 355.599497 273.312 
L 357.214323 273.312 
L 357.214323 61.156344 
L 355.599497 61.156344 
z
" clip-path="url(#p704165f28f)" style="fill: #1f77b4"/>
   </g>
   <g id="patch_186">
    <path d="M 357.214323 273.312 
L 358.82915 273.312 
L 358.82915 62.303131 
L 357.214323 62.303131 
z
" clip-path="url(#p704165f28f)" style="fill: #1f77b4"/>
   </g>
   <g id="patch_187">
    <path d="M 358.82915 273.312 
L 360.443977 273.312 
L 360.443977 58.289376 
L 358.82915 58.289376 
z
" clip-path="url(#p704165f28f)" style="fill: #1f77b4"/>
   </g>
   <g id="patch_188">
    <path d="M 360.443977 273.312 
L 362.058803 273.312 
L 362.058803 85.238878 
L 360.443977 85.238878 
z
" clip-path="url(#p704165f28f)" style="fill: #1f77b4"/>
   </g>
   <g id="patch_189">
    <path d="M 362.058803 273.312 
L 363.67363 273.312 
L 363.67363 78.931548 
L 362.058803 78.931548 
z
" clip-path="url(#p704165f28f)" style="fill: #1f77b4"/>
   </g>
   <g id="patch_190">
    <path d="M 363.67363 273.312 
L 365.288457 273.312 
L 365.288457 49.688471 
L 363.67363 49.688471 
z
" clip-path="url(#p704165f28f)" style="fill: #1f77b4"/>
   </g>
   <g id="patch_191">
    <path d="M 365.288457 273.312 
L 366.903283 273.312 
L 366.903283 42.234353 
L 365.288457 42.234353 
z
" clip-path="url(#p704165f28f)" style="fill: #1f77b4"/>
   </g>
   <g id="patch_192">
    <path d="M 366.903283 273.312 
L 368.51811 273.312 
L 368.51811 72.624217 
L 366.903283 72.624217 
z
" clip-path="url(#p704165f28f)" style="fill: #1f77b4"/>
   </g>
   <g id="patch_193">
    <path d="M 368.51811 273.312 
L 370.132936 273.312 
L 370.132936 45.101321 
L 368.51811 45.101321 
z
" clip-path="url(#p704165f28f)" style="fill: #1f77b4"/>
   </g>
   <g id="patch_194">
    <path d="M 370.132936 273.312 
L 371.747763 273.312 
L 371.747763 56.569195 
L 370.132936 56.569195 
z
" clip-path="url(#p704165f28f)" style="fill: #1f77b4"/>
   </g>
   <g id="patch_195">
    <path d="M 371.747763 273.312 
L 373.36259 273.312 
L 373.36259 19.872 
L 371.747763 19.872 
z
" clip-path="url(#p704165f28f)" style="fill: #1f77b4"/>
   </g>
   <g id="patch_196">
    <path d="M 373.36259 273.312 
L 374.977416 273.312 
L 374.977416 46.821502 
L 373.36259 46.821502 
z
" clip-path="url(#p704165f28f)" style="fill: #1f77b4"/>
   </g>
   <g id="patch_197">
    <path d="M 374.977416 273.312 
L 376.592243 273.312 
L 376.592243 44.527928 
L 374.977416 44.527928 
z
" clip-path="url(#p704165f28f)" style="fill: #1f77b4"/>
   </g>
   <g id="patch_198">
    <path d="M 376.592243 273.312 
L 378.207069 273.312 
L 378.207069 50.835258 
L 376.592243 50.835258 
z
" clip-path="url(#p704165f28f)" style="fill: #1f77b4"/>
   </g>
   <g id="patch_199">
    <path d="M 378.207069 273.312 
L 379.821896 273.312 
L 379.821896 42.807747 
L 378.207069 42.807747 
z
" clip-path="url(#p704165f28f)" style="fill: #1f77b4"/>
   </g>
   <g id="patch_200">
    <path d="M 379.821896 273.312 
L 381.436723 273.312 
L 381.436723 53.702226 
L 379.821896 53.702226 
z
" clip-path="url(#p704165f28f)" style="fill: #1f77b4"/>
   </g>
   <g id="patch_201">
    <path d="M 381.436723 273.312 
L 383.051549 273.312 
L 383.051549 23.312362 
L 381.436723 23.312362 
z
" clip-path="url(#p704165f28f)" style="fill: #1f77b4"/>
   </g>
   <g id="patch_202">
    <path d="M 383.051549 273.312 
L 384.666376 273.312 
L 384.666376 43.38114 
L 383.051549 43.38114 
z
" clip-path="url(#p704165f28f)" style="fill: #1f77b4"/>
   </g>
   <g id="matplotlib.axis_1">
    <g id="xtick_1">
     <g id="line2d_1">
      <defs>
       <path id="m2ab8f503cc" d="M 0 0 
L 0 3.5 
" style="stroke: #000000; stroke-width: 0.8"/>
      </defs>
      <g>
       <use xlink:href="#m2ab8f503cc" x="60.013977" y="273.312" style="stroke: #000000; stroke-width: 0.8"/>
      </g>
     </g>
     <g id="text_1">
      <!-- 0.0 -->
      <g transform="translate(52.062415 287.910437)scale(0.1 -0.1)">
       <defs>
        <path id="DejaVuSans-30" d="M 2034 4250 
Q 1547 4250 1301 3770 
Q 1056 3291 1056 2328 
Q 1056 1369 1301 889 
Q 1547 409 2034 409 
Q 2525 409 2770 889 
Q 3016 1369 3016 2328 
Q 3016 3291 2770 3770 
Q 2525 4250 2034 4250 
z
M 2034 4750 
Q 2819 4750 3233 4129 
Q 3647 3509 3647 2328 
Q 3647 1150 3233 529 
Q 2819 -91 2034 -91 
Q 1250 -91 836 529 
Q 422 1150 422 2328 
Q 422 3509 836 4129 
Q 1250 4750 2034 4750 
z
" transform="scale(0.015625)"/>
        <path id="DejaVuSans-2e" d="M 684 794 
L 1344 794 
L 1344 0 
L 684 0 
L 684 794 
z
" transform="scale(0.015625)"/>
       </defs>
       <use xlink:href="#DejaVuSans-30"/>
       <use xlink:href="#DejaVuSans-2e" x="63.623047"/>
       <use xlink:href="#DejaVuSans-30" x="95.410156"/>
      </g>
     </g>
    </g>
    <g id="xtick_2">
     <g id="line2d_2">
      <g>
       <use xlink:href="#m2ab8f503cc" x="124.944886" y="273.312" style="stroke: #000000; stroke-width: 0.8"/>
      </g>
     </g>
     <g id="text_2">
      <!-- 0.2 -->
      <g transform="translate(116.993324 287.910437)scale(0.1 -0.1)">
       <defs>
        <path id="DejaVuSans-32" d="M 1228 531 
L 3431 531 
L 3431 0 
L 469 0 
L 469 531 
Q 828 903 1448 1529 
Q 2069 2156 2228 2338 
Q 2531 2678 2651 2914 
Q 2772 3150 2772 3378 
Q 2772 3750 2511 3984 
Q 2250 4219 1831 4219 
Q 1534 4219 1204 4116 
Q 875 4013 500 3803 
L 500 4441 
Q 881 4594 1212 4672 
Q 1544 4750 1819 4750 
Q 2544 4750 2975 4387 
Q 3406 4025 3406 3419 
Q 3406 3131 3298 2873 
Q 3191 2616 2906 2266 
Q 2828 2175 2409 1742 
Q 1991 1309 1228 531 
z
" transform="scale(0.015625)"/>
       </defs>
       <use xlink:href="#DejaVuSans-30"/>
       <use xlink:href="#DejaVuSans-2e" x="63.623047"/>
       <use xlink:href="#DejaVuSans-32" x="95.410156"/>
      </g>
     </g>
    </g>
    <g id="xtick_3">
     <g id="line2d_3">
      <g>
       <use xlink:href="#m2ab8f503cc" x="189.875795" y="273.312" style="stroke: #000000; stroke-width: 0.8"/>
      </g>
     </g>
     <g id="text_3">
      <!-- 0.4 -->
      <g transform="translate(181.924233 287.910437)scale(0.1 -0.1)">
       <defs>
        <path id="DejaVuSans-34" d="M 2419 4116 
L 825 1625 
L 2419 1625 
L 2419 4116 
z
M 2253 4666 
L 3047 4666 
L 3047 1625 
L 3713 1625 
L 3713 1100 
L 3047 1100 
L 3047 0 
L 2419 0 
L 2419 1100 
L 313 1100 
L 313 1709 
L 2253 4666 
z
" transform="scale(0.015625)"/>
       </defs>
       <use xlink:href="#DejaVuSans-30"/>
       <use xlink:href="#DejaVuSans-2e" x="63.623047"/>
       <use xlink:href="#DejaVuSans-34" x="95.410156"/>
      </g>
     </g>
    </g>
    <g id="xtick_4">
     <g id="line2d_4">
      <g>
       <use xlink:href="#m2ab8f503cc" x="254.806705" y="273.312" style="stroke: #000000; stroke-width: 0.8"/>
      </g>
     </g>
     <g id="text_4">
      <!-- 0.6 -->
      <g transform="translate(246.855142 287.910437)scale(0.1 -0.1)">
       <defs>
        <path id="DejaVuSans-36" d="M 2113 2584 
Q 1688 2584 1439 2293 
Q 1191 2003 1191 1497 
Q 1191 994 1439 701 
Q 1688 409 2113 409 
Q 2538 409 2786 701 
Q 3034 994 3034 1497 
Q 3034 2003 2786 2293 
Q 2538 2584 2113 2584 
z
M 3366 4563 
L 3366 3988 
Q 3128 4100 2886 4159 
Q 2644 4219 2406 4219 
Q 1781 4219 1451 3797 
Q 1122 3375 1075 2522 
Q 1259 2794 1537 2939 
Q 1816 3084 2150 3084 
Q 2853 3084 3261 2657 
Q 3669 2231 3669 1497 
Q 3669 778 3244 343 
Q 2819 -91 2113 -91 
Q 1303 -91 875 529 
Q 447 1150 447 2328 
Q 447 3434 972 4092 
Q 1497 4750 2381 4750 
Q 2619 4750 2861 4703 
Q 3103 4656 3366 4563 
z
" transform="scale(0.015625)"/>
       </defs>
       <use xlink:href="#DejaVuSans-30"/>
       <use xlink:href="#DejaVuSans-2e" x="63.623047"/>
       <use xlink:href="#DejaVuSans-36" x="95.410156"/>
      </g>
     </g>
    </g>
    <g id="xtick_5">
     <g id="line2d_5">
      <g>
       <use xlink:href="#m2ab8f503cc" x="319.737614" y="273.312" style="stroke: #000000; stroke-width: 0.8"/>
      </g>
     </g>
     <g id="text_5">
      <!-- 0.8 -->
      <g transform="translate(311.786051 287.910437)scale(0.1 -0.1)">
       <defs>
        <path id="DejaVuSans-38" d="M 2034 2216 
Q 1584 2216 1326 1975 
Q 1069 1734 1069 1313 
Q 1069 891 1326 650 
Q 1584 409 2034 409 
Q 2484 409 2743 651 
Q 3003 894 3003 1313 
Q 3003 1734 2745 1975 
Q 2488 2216 2034 2216 
z
M 1403 2484 
Q 997 2584 770 2862 
Q 544 3141 544 3541 
Q 544 4100 942 4425 
Q 1341 4750 2034 4750 
Q 2731 4750 3128 4425 
Q 3525 4100 3525 3541 
Q 3525 3141 3298 2862 
Q 3072 2584 2669 2484 
Q 3125 2378 3379 2068 
Q 3634 1759 3634 1313 
Q 3634 634 3220 271 
Q 2806 -91 2034 -91 
Q 1263 -91 848 271 
Q 434 634 434 1313 
Q 434 1759 690 2068 
Q 947 2378 1403 2484 
z
M 1172 3481 
Q 1172 3119 1398 2916 
Q 1625 2713 2034 2713 
Q 2441 2713 2670 2916 
Q 2900 3119 2900 3481 
Q 2900 3844 2670 4047 
Q 2441 4250 2034 4250 
Q 1625 4250 1398 4047 
Q 1172 3844 1172 3481 
z
" transform="scale(0.015625)"/>
       </defs>
       <use xlink:href="#DejaVuSans-30"/>
       <use xlink:href="#DejaVuSans-2e" x="63.623047"/>
       <use xlink:href="#DejaVuSans-38" x="95.410156"/>
      </g>
     </g>
    </g>
    <g id="xtick_6">
     <g id="line2d_6">
      <g>
       <use xlink:href="#m2ab8f503cc" x="384.668523" y="273.312" style="stroke: #000000; stroke-width: 0.8"/>
      </g>
     </g>
     <g id="text_6">
      <!-- 1.0 -->
      <g transform="translate(376.71696 287.910437)scale(0.1 -0.1)">
       <defs>
        <path id="DejaVuSans-31" d="M 794 531 
L 1825 531 
L 1825 4091 
L 703 3866 
L 703 4441 
L 1819 4666 
L 2450 4666 
L 2450 531 
L 3481 531 
L 3481 0 
L 794 0 
L 794 531 
z
" transform="scale(0.015625)"/>
       </defs>
       <use xlink:href="#DejaVuSans-31"/>
       <use xlink:href="#DejaVuSans-2e" x="63.623047"/>
       <use xlink:href="#DejaVuSans-30" x="95.410156"/>
      </g>
     </g>
    </g>
    <g id="text_7">
     <!-- Propagation direction -->
     <g transform="translate(168.859219 301.588562)scale(0.1 -0.1)">
      <defs>
       <path id="DejaVuSans-50" d="M 1259 4147 
L 1259 2394 
L 2053 2394 
Q 2494 2394 2734 2622 
Q 2975 2850 2975 3272 
Q 2975 3691 2734 3919 
Q 2494 4147 2053 4147 
L 1259 4147 
z
M 628 4666 
L 2053 4666 
Q 2838 4666 3239 4311 
Q 3641 3956 3641 3272 
Q 3641 2581 3239 2228 
Q 2838 1875 2053 1875 
L 1259 1875 
L 1259 0 
L 628 0 
L 628 4666 
z
" transform="scale(0.015625)"/>
       <path id="DejaVuSans-72" d="M 2631 2963 
Q 2534 3019 2420 3045 
Q 2306 3072 2169 3072 
Q 1681 3072 1420 2755 
Q 1159 2438 1159 1844 
L 1159 0 
L 581 0 
L 581 3500 
L 1159 3500 
L 1159 2956 
Q 1341 3275 1631 3429 
Q 1922 3584 2338 3584 
Q 2397 3584 2469 3576 
Q 2541 3569 2628 3553 
L 2631 2963 
z
" transform="scale(0.015625)"/>
       <path id="DejaVuSans-6f" d="M 1959 3097 
Q 1497 3097 1228 2736 
Q 959 2375 959 1747 
Q 959 1119 1226 758 
Q 1494 397 1959 397 
Q 2419 397 2687 759 
Q 2956 1122 2956 1747 
Q 2956 2369 2687 2733 
Q 2419 3097 1959 3097 
z
M 1959 3584 
Q 2709 3584 3137 3096 
Q 3566 2609 3566 1747 
Q 3566 888 3137 398 
Q 2709 -91 1959 -91 
Q 1206 -91 779 398 
Q 353 888 353 1747 
Q 353 2609 779 3096 
Q 1206 3584 1959 3584 
z
" transform="scale(0.015625)"/>
       <path id="DejaVuSans-70" d="M 1159 525 
L 1159 -1331 
L 581 -1331 
L 581 3500 
L 1159 3500 
L 1159 2969 
Q 1341 3281 1617 3432 
Q 1894 3584 2278 3584 
Q 2916 3584 3314 3078 
Q 3713 2572 3713 1747 
Q 3713 922 3314 415 
Q 2916 -91 2278 -91 
Q 1894 -91 1617 61 
Q 1341 213 1159 525 
z
M 3116 1747 
Q 3116 2381 2855 2742 
Q 2594 3103 2138 3103 
Q 1681 3103 1420 2742 
Q 1159 2381 1159 1747 
Q 1159 1113 1420 752 
Q 1681 391 2138 391 
Q 2594 391 2855 752 
Q 3116 1113 3116 1747 
z
" transform="scale(0.015625)"/>
       <path id="DejaVuSans-61" d="M 2194 1759 
Q 1497 1759 1228 1600 
Q 959 1441 959 1056 
Q 959 750 1161 570 
Q 1363 391 1709 391 
Q 2188 391 2477 730 
Q 2766 1069 2766 1631 
L 2766 1759 
L 2194 1759 
z
M 3341 1997 
L 3341 0 
L 2766 0 
L 2766 531 
Q 2569 213 2275 61 
Q 1981 -91 1556 -91 
Q 1019 -91 701 211 
Q 384 513 384 1019 
Q 384 1609 779 1909 
Q 1175 2209 1959 2209 
L 2766 2209 
L 2766 2266 
Q 2766 2663 2505 2880 
Q 2244 3097 1772 3097 
Q 1472 3097 1187 3025 
Q 903 2953 641 2809 
L 641 3341 
Q 956 3463 1253 3523 
Q 1550 3584 1831 3584 
Q 2591 3584 2966 3190 
Q 3341 2797 3341 1997 
z
" transform="scale(0.015625)"/>
       <path id="DejaVuSans-67" d="M 2906 1791 
Q 2906 2416 2648 2759 
Q 2391 3103 1925 3103 
Q 1463 3103 1205 2759 
Q 947 2416 947 1791 
Q 947 1169 1205 825 
Q 1463 481 1925 481 
Q 2391 481 2648 825 
Q 2906 1169 2906 1791 
z
M 3481 434 
Q 3481 -459 3084 -895 
Q 2688 -1331 1869 -1331 
Q 1566 -1331 1297 -1286 
Q 1028 -1241 775 -1147 
L 775 -588 
Q 1028 -725 1275 -790 
Q 1522 -856 1778 -856 
Q 2344 -856 2625 -561 
Q 2906 -266 2906 331 
L 2906 616 
Q 2728 306 2450 153 
Q 2172 0 1784 0 
Q 1141 0 747 490 
Q 353 981 353 1791 
Q 353 2603 747 3093 
Q 1141 3584 1784 3584 
Q 2172 3584 2450 3431 
Q 2728 3278 2906 2969 
L 2906 3500 
L 3481 3500 
L 3481 434 
z
" transform="scale(0.015625)"/>
       <path id="DejaVuSans-74" d="M 1172 4494 
L 1172 3500 
L 2356 3500 
L 2356 3053 
L 1172 3053 
L 1172 1153 
Q 1172 725 1289 603 
Q 1406 481 1766 481 
L 2356 481 
L 2356 0 
L 1766 0 
Q 1100 0 847 248 
Q 594 497 594 1153 
L 594 3053 
L 172 3053 
L 172 3500 
L 594 3500 
L 594 4494 
L 1172 4494 
z
" transform="scale(0.015625)"/>
       <path id="DejaVuSans-69" d="M 603 3500 
L 1178 3500 
L 1178 0 
L 603 0 
L 603 3500 
z
M 603 4863 
L 1178 4863 
L 1178 4134 
L 603 4134 
L 603 4863 
z
" transform="scale(0.015625)"/>
       <path id="DejaVuSans-6e" d="M 3513 2113 
L 3513 0 
L 2938 0 
L 2938 2094 
Q 2938 2591 2744 2837 
Q 2550 3084 2163 3084 
Q 1697 3084 1428 2787 
Q 1159 2491 1159 1978 
L 1159 0 
L 581 0 
L 581 3500 
L 1159 3500 
L 1159 2956 
Q 1366 3272 1645 3428 
Q 1925 3584 2291 3584 
Q 2894 3584 3203 3211 
Q 3513 2838 3513 2113 
z
" transform="scale(0.015625)"/>
       <path id="DejaVuSans-20" transform="scale(0.015625)"/>
       <path id="DejaVuSans-64" d="M 2906 2969 
L 2906 4863 
L 3481 4863 
L 3481 0 
L 2906 0 
L 2906 525 
Q 2725 213 2448 61 
Q 2172 -91 1784 -91 
Q 1150 -91 751 415 
Q 353 922 353 1747 
Q 353 2572 751 3078 
Q 1150 3584 1784 3584 
Q 2172 3584 2448 3432 
Q 2725 3281 2906 2969 
z
M 947 1747 
Q 947 1113 1208 752 
Q 1469 391 1925 391 
Q 2381 391 2643 752 
Q 2906 1113 2906 1747 
Q 2906 2381 2643 2742 
Q 2381 3103 1925 3103 
Q 1469 3103 1208 2742 
Q 947 2381 947 1747 
z
" transform="scale(0.015625)"/>
       <path id="DejaVuSans-65" d="M 3597 1894 
L 3597 1613 
L 953 1613 
Q 991 1019 1311 708 
Q 1631 397 2203 397 
Q 2534 397 2845 478 
Q 3156 559 3463 722 
L 3463 178 
Q 3153 47 2828 -22 
Q 2503 -91 2169 -91 
Q 1331 -91 842 396 
Q 353 884 353 1716 
Q 353 2575 817 3079 
Q 1281 3584 2069 3584 
Q 2775 3584 3186 3129 
Q 3597 2675 3597 1894 
z
M 3022 2063 
Q 3016 2534 2758 2815 
Q 2500 3097 2075 3097 
Q 1594 3097 1305 2825 
Q 1016 2553 972 2059 
L 3022 2063 
z
" transform="scale(0.015625)"/>
       <path id="DejaVuSans-63" d="M 3122 3366 
L 3122 2828 
Q 2878 2963 2633 3030 
Q 2388 3097 2138 3097 
Q 1578 3097 1268 2742 
Q 959 2388 959 1747 
Q 959 1106 1268 751 
Q 1578 397 2138 397 
Q 2388 397 2633 464 
Q 2878 531 3122 666 
L 3122 134 
Q 2881 22 2623 -34 
Q 2366 -91 2075 -91 
Q 1284 -91 818 406 
Q 353 903 353 1747 
Q 353 2603 823 3093 
Q 1294 3584 2113 3584 
Q 2378 3584 2631 3529 
Q 2884 3475 3122 3366 
z
" transform="scale(0.015625)"/>
      </defs>
      <use xlink:href="#DejaVuSans-50"/>
      <use xlink:href="#DejaVuSans-72" x="58.552734"/>
      <use xlink:href="#DejaVuSans-6f" x="97.416016"/>
      <use xlink:href="#DejaVuSans-70" x="158.597656"/>
      <use xlink:href="#DejaVuSans-61" x="222.074219"/>
      <use xlink:href="#DejaVuSans-67" x="283.353516"/>
      <use xlink:href="#DejaVuSans-61" x="346.830078"/>
      <use xlink:href="#DejaVuSans-74" x="408.109375"/>
      <use xlink:href="#DejaVuSans-69" x="447.318359"/>
      <use xlink:href="#DejaVuSans-6f" x="475.101562"/>
      <use xlink:href="#DejaVuSans-6e" x="536.283203"/>
      <use xlink:href="#DejaVuSans-20" x="599.662109"/>
      <use xlink:href="#DejaVuSans-64" x="631.449219"/>
      <use xlink:href="#DejaVuSans-69" x="694.925781"/>
      <use xlink:href="#DejaVuSans-72" x="722.708984"/>
      <use xlink:href="#DejaVuSans-65" x="761.572266"/>
      <use xlink:href="#DejaVuSans-63" x="823.095703"/>
      <use xlink:href="#DejaVuSans-74" x="878.076172"/>
      <use xlink:href="#DejaVuSans-69" x="917.285156"/>
      <use xlink:href="#DejaVuSans-6f" x="945.068359"/>
      <use xlink:href="#DejaVuSans-6e" x="1006.25"/>
     </g>
    </g>
   </g>
   <g id="matplotlib.axis_2">
    <g id="ytick_1">
     <g id="line2d_7">
      <defs>
       <path id="m2eaa59e9e1" d="M 0 0 
L -3.5 0 
" style="stroke: #000000; stroke-width: 0.8"/>
      </defs>
      <g>
       <use xlink:href="#m2eaa59e9e1" x="43.78125" y="273.312" style="stroke: #000000; stroke-width: 0.8"/>
      </g>
     </g>
     <g id="text_8">
      <!-- 0.0 -->
      <g transform="translate(20.878125 277.111219)scale(0.1 -0.1)">
       <use xlink:href="#DejaVuSans-30"/>
       <use xlink:href="#DejaVuSans-2e" x="63.623047"/>
       <use xlink:href="#DejaVuSans-30" x="95.410156"/>
      </g>
     </g>
    </g>
    <g id="ytick_2">
     <g id="line2d_8">
      <g>
       <use xlink:href="#m2eaa59e9e1" x="43.78125" y="216.270978" style="stroke: #000000; stroke-width: 0.8"/>
      </g>
     </g>
     <g id="text_9">
      <!-- 0.5 -->
      <g transform="translate(20.878125 220.070197)scale(0.1 -0.1)">
       <defs>
        <path id="DejaVuSans-35" d="M 691 4666 
L 3169 4666 
L 3169 4134 
L 1269 4134 
L 1269 2991 
Q 1406 3038 1543 3061 
Q 1681 3084 1819 3084 
Q 2600 3084 3056 2656 
Q 3513 2228 3513 1497 
Q 3513 744 3044 326 
Q 2575 -91 1722 -91 
Q 1428 -91 1123 -41 
Q 819 9 494 109 
L 494 744 
Q 775 591 1075 516 
Q 1375 441 1709 441 
Q 2250 441 2565 725 
Q 2881 1009 2881 1497 
Q 2881 1984 2565 2268 
Q 2250 2553 1709 2553 
Q 1456 2553 1204 2497 
Q 953 2441 691 2322 
L 691 4666 
z
" transform="scale(0.015625)"/>
       </defs>
       <use xlink:href="#DejaVuSans-30"/>
       <use xlink:href="#DejaVuSans-2e" x="63.623047"/>
       <use xlink:href="#DejaVuSans-35" x="95.410156"/>
      </g>
     </g>
    </g>
    <g id="ytick_3">
     <g id="line2d_9">
      <g>
       <use xlink:href="#m2eaa59e9e1" x="43.78125" y="159.229956" style="stroke: #000000; stroke-width: 0.8"/>
      </g>
     </g>
     <g id="text_10">
      <!-- 1.0 -->
      <g transform="translate(20.878125 163.029175)scale(0.1 -0.1)">
       <use xlink:href="#DejaVuSans-31"/>
       <use xlink:href="#DejaVuSans-2e" x="63.623047"/>
       <use xlink:href="#DejaVuSans-30" x="95.410156"/>
      </g>
     </g>
    </g>
    <g id="ytick_4">
     <g id="line2d_10">
      <g>
       <use xlink:href="#m2eaa59e9e1" x="43.78125" y="102.188934" style="stroke: #000000; stroke-width: 0.8"/>
      </g>
     </g>
     <g id="text_11">
      <!-- 1.5 -->
      <g transform="translate(20.878125 105.988153)scale(0.1 -0.1)">
       <use xlink:href="#DejaVuSans-31"/>
       <use xlink:href="#DejaVuSans-2e" x="63.623047"/>
       <use xlink:href="#DejaVuSans-35" x="95.410156"/>
      </g>
     </g>
    </g>
    <g id="ytick_5">
     <g id="line2d_11">
      <g>
       <use xlink:href="#m2eaa59e9e1" x="43.78125" y="45.147912" style="stroke: #000000; stroke-width: 0.8"/>
      </g>
     </g>
     <g id="text_12">
      <!-- 2.0 -->
      <g transform="translate(20.878125 48.94713)scale(0.1 -0.1)">
       <use xlink:href="#DejaVuSans-32"/>
       <use xlink:href="#DejaVuSans-2e" x="63.623047"/>
       <use xlink:href="#DejaVuSans-30" x="95.410156"/>
      </g>
     </g>
    </g>
    <g id="text_13">
     <!-- Probability density -->
     <g transform="translate(14.798438 186.606781)rotate(-90)scale(0.1 -0.1)">
      <defs>
       <path id="DejaVuSans-62" d="M 3116 1747 
Q 3116 2381 2855 2742 
Q 2594 3103 2138 3103 
Q 1681 3103 1420 2742 
Q 1159 2381 1159 1747 
Q 1159 1113 1420 752 
Q 1681 391 2138 391 
Q 2594 391 2855 752 
Q 3116 1113 3116 1747 
z
M 1159 2969 
Q 1341 3281 1617 3432 
Q 1894 3584 2278 3584 
Q 2916 3584 3314 3078 
Q 3713 2572 3713 1747 
Q 3713 922 3314 415 
Q 2916 -91 2278 -91 
Q 1894 -91 1617 61 
Q 1341 213 1159 525 
L 1159 0 
L 581 0 
L 581 4863 
L 1159 4863 
L 1159 2969 
z
" transform="scale(0.015625)"/>
       <path id="DejaVuSans-6c" d="M 603 4863 
L 1178 4863 
L 1178 0 
L 603 0 
L 603 4863 
z
" transform="scale(0.015625)"/>
       <path id="DejaVuSans-79" d="M 2059 -325 
Q 1816 -950 1584 -1140 
Q 1353 -1331 966 -1331 
L 506 -1331 
L 506 -850 
L 844 -850 
Q 1081 -850 1212 -737 
Q 1344 -625 1503 -206 
L 1606 56 
L 191 3500 
L 800 3500 
L 1894 763 
L 2988 3500 
L 3597 3500 
L 2059 -325 
z
" transform="scale(0.015625)"/>
       <path id="DejaVuSans-73" d="M 2834 3397 
L 2834 2853 
Q 2591 2978 2328 3040 
Q 2066 3103 1784 3103 
Q 1356 3103 1142 2972 
Q 928 2841 928 2578 
Q 928 2378 1081 2264 
Q 1234 2150 1697 2047 
L 1894 2003 
Q 2506 1872 2764 1633 
Q 3022 1394 3022 966 
Q 3022 478 2636 193 
Q 2250 -91 1575 -91 
Q 1294 -91 989 -36 
Q 684 19 347 128 
L 347 722 
Q 666 556 975 473 
Q 1284 391 1588 391 
Q 1994 391 2212 530 
Q 2431 669 2431 922 
Q 2431 1156 2273 1281 
Q 2116 1406 1581 1522 
L 1381 1569 
Q 847 1681 609 1914 
Q 372 2147 372 2553 
Q 372 3047 722 3315 
Q 1072 3584 1716 3584 
Q 2034 3584 2315 3537 
Q 2597 3491 2834 3397 
z
" transform="scale(0.015625)"/>
      </defs>
      <use xlink:href="#DejaVuSans-50"/>
      <use xlink:href="#DejaVuSans-72" x="58.552734"/>
      <use xlink:href="#DejaVuSans-6f" x="97.416016"/>
      <use xlink:href="#DejaVuSans-62" x="158.597656"/>
      <use xlink:href="#DejaVuSans-61" x="222.074219"/>
      <use xlink:href="#DejaVuSans-62" x="283.353516"/>
      <use xlink:href="#DejaVuSans-69" x="346.830078"/>
      <use xlink:href="#DejaVuSans-6c" x="374.613281"/>
      <use xlink:href="#DejaVuSans-69" x="402.396484"/>
      <use xlink:href="#DejaVuSans-74" x="430.179688"/>
      <use xlink:href="#DejaVuSans-79" x="469.388672"/>
      <use xlink:href="#DejaVuSans-20" x="528.568359"/>
      <use xlink:href="#DejaVuSans-64" x="560.355469"/>
      <use xlink:href="#DejaVuSans-65" x="623.832031"/>
      <use xlink:href="#DejaVuSans-6e" x="685.355469"/>
      <use xlink:href="#DejaVuSans-73" x="748.734375"/>
      <use xlink:href="#DejaVuSans-69" x="800.833984"/>
      <use xlink:href="#DejaVuSans-74" x="828.617188"/>
      <use xlink:href="#DejaVuSans-79" x="867.826172"/>
     </g>
    </g>
   </g>
   <g id="line2d_12">
    <path d="M 60.013977 273.312 
L 384.668523 45.147912 
L 384.668523 45.147912 
" clip-path="url(#p704165f28f)" style="fill: none; stroke: #ff7f0e; stroke-width: 1.5; stroke-linecap: square"/>
   </g>
   <g id="patch_203">
    <path d="M 43.78125 273.312 
L 43.78125 7.2 
" style="fill: none; stroke: #000000; stroke-width: 0.8; stroke-linejoin: miter; stroke-linecap: square"/>
   </g>
   <g id="patch_204">
    <path d="M 400.90125 273.312 
L 400.90125 7.2 
" style="fill: none; stroke: #000000; stroke-width: 0.8; stroke-linejoin: miter; stroke-linecap: square"/>
   </g>
   <g id="patch_205">
    <path d="M 43.78125 273.312 
L 400.90125 273.312 
" style="fill: none; stroke: #000000; stroke-width: 0.8; stroke-linejoin: miter; stroke-linecap: square"/>
   </g>
   <g id="patch_206">
    <path d="M 43.78125 7.2 
L 400.90125 7.2 
" style="fill: none; stroke: #000000; stroke-width: 0.8; stroke-linejoin: miter; stroke-linecap: square"/>
   </g>
  </g>
 </g>
 <defs>
  <clipPath id="p704165f28f">
   <rect x="43.78125" y="7.2" width="357.12" height="266.112"/>
  </clipPath>
 </defs>
</svg>
